<svg width="40" height="40" viewBox="0 0 40 40" fill="none" xmlns="http://www.w3.org/2000/svg">
<g clip-path="url(#clip0_5008_62)">
<path d="M19.8438 19.1605C20.2752 19.1605 20.625 18.8107 20.625 18.3793V15.9997H22.1586C22.5901 15.9997 22.9398 15.6498 22.9398 15.2184C22.9398 14.787 22.5901 14.4372 22.1586 14.4372H20.625V12.9563H22.3584C22.7898 12.9563 23.1396 12.6065 23.1396 12.175C23.1396 11.7436 22.7898 11.3938 22.3584 11.3938H19.8438C19.4123 11.3938 19.0625 11.7436 19.0625 12.175V18.3793C19.0625 18.8107 19.4123 19.1605 19.8438 19.1605Z" fill="black"/>
<path d="M14.1763 11.3709H12.4063C12.1988 11.3709 11.9998 11.4534 11.8533 11.6003C11.7067 11.7472 11.6246 11.9462 11.625 12.1536V12.1585V12.1586C11.625 12.1586 11.6304 18.4045 11.6403 18.4542C11.653 18.6434 11.7332 18.8223 11.8686 18.9567C12.015 19.1019 12.2128 19.1834 12.419 19.1834H12.422C12.4755 19.1832 13.7375 19.1783 14.2419 19.1695C16.1191 19.1367 17.4816 17.4997 17.4816 15.2772C17.4816 12.9408 16.1533 11.3709 14.1763 11.3709ZM14.2145 17.6073C13.9809 17.6114 13.5684 17.6146 13.1975 17.6169C13.1951 16.8772 13.1902 13.7016 13.1889 12.9334H14.1763C15.0188 12.9334 15.9191 13.5491 15.9191 15.2772C15.9191 16.4221 15.392 17.5866 14.2145 17.6073Z" fill="black"/>
<path d="M7.81941 11.3709H6.07918C5.87152 11.3709 5.67246 11.4536 5.52582 11.6006C5.37988 11.747 5.29801 11.9454 5.29801 12.1522H5.29785V18.4022C5.29785 18.8336 5.64762 19.1834 6.0791 19.1834C6.51059 19.1834 6.86035 18.8336 6.86035 18.4022V16.4644C7.21137 16.4626 7.59793 16.461 7.81934 16.461C9.24168 16.461 10.3989 15.3193 10.3989 13.916C10.3989 12.5126 9.24176 11.3709 7.81941 11.3709ZM7.81941 14.8984C7.59871 14.8984 7.21723 14.9001 6.86824 14.9018C6.86645 14.5404 6.86379 13.3109 6.86277 12.9334H7.81949C8.37082 12.9334 8.83652 13.3833 8.83652 13.9159C8.83652 14.4485 8.37074 14.8984 7.81941 14.8984Z" fill="black"/>
<path d="M39.9041 29.8142C39.7671 29.5637 39.5043 29.4079 39.2188 29.4079H37.3235V22.7741C37.3235 22.3427 36.9738 21.9928 36.5423 21.9928H34.2155V6.79745C34.2155 6.59019 34.1332 6.39144 33.9866 6.24488L27.9688 0.229954C27.8223 0.0835474 27.6236 0.00128174 27.4165 0.00128174H6.5625C5.27016 0.00128174 4.21875 1.05269 4.21875 2.34503V8.24574H2.34375C1.05141 8.24574 0 9.29714 0 10.5895V19.9645C0 21.2568 1.05141 22.3082 2.34375 22.3082H4.21875V36.0907C4.21875 37.3831 5.27016 38.4345 6.5625 38.4345H32.0086L32.7795 39.6384C32.9231 39.8627 33.1712 39.9983 33.4374 39.9983C33.7037 39.9983 33.9517 39.8627 34.0953 39.6384L39.8766 30.6103C40.0306 30.37 40.0412 30.0647 39.9041 29.8142ZM28.1195 2.58995L31.6256 6.09433H28.9008C28.47 6.09433 28.1195 5.74386 28.1195 5.31308V2.58995ZM6.5625 36.8721C6.13172 36.8721 5.78125 36.5216 5.78125 36.0908V22.3083H11.0874C11.5189 22.3083 11.8687 21.9585 11.8687 21.5271C11.8687 21.0957 11.5189 20.7458 11.0874 20.7458H2.34375C1.91297 20.7458 1.5625 20.3953 1.5625 19.9646V10.5896C1.5625 10.1588 1.91297 9.80831 2.34375 9.80831H26.0938C26.5245 9.80831 26.875 10.1588 26.875 10.5896V19.9646C26.875 20.3953 26.5245 20.7458 26.0938 20.7458H18.1187C17.6872 20.7458 17.3374 21.0957 17.3374 21.5271C17.3374 21.9585 17.6872 22.3083 18.1187 22.3083H26.0938C27.3861 22.3083 28.4375 21.2569 28.4375 19.9646V10.5896C28.4375 9.29722 27.3861 8.24581 26.0938 8.24581H5.78125V2.34511C5.78125 1.91433 6.13172 1.56386 6.5625 1.56386H26.557V5.31308C26.557 6.60542 27.6084 7.65683 28.9008 7.65683H32.653V21.9928H30.3327C29.9013 21.9928 29.5515 22.3427 29.5515 22.7741V29.4079H27.6562C27.3707 29.4079 27.1079 29.5637 26.9709 29.8142C26.8338 30.0647 26.8444 30.37 26.9984 30.6104L31.008 36.872L6.5625 36.8721ZM33.4375 37.7685L29.0842 30.9704H30.3327C30.7642 30.9704 31.114 30.6206 31.114 30.1892V23.5553H35.7609V30.1892C35.7609 30.6206 36.1107 30.9704 36.5422 30.9704H37.7907L33.4375 37.7685Z" fill="black"/>
<path d="M14.6035 22.3083C15.035 22.3083 15.3848 21.9586 15.3848 21.5271C15.3848 21.0956 15.035 20.7458 14.6035 20.7458C14.172 20.7458 13.8223 21.0956 13.8223 21.5271C13.8223 21.9586 14.172 22.3083 14.6035 22.3083Z" fill="black"/>
</g>
<defs>
<clipPath id="clip0_5008_62">
<rect width="40" height="40" fill="white"/>
</clipPath>
</defs>
</svg>
