<svg width="135" height="79" viewBox="0 0 135 79" fill="none" xmlns="http://www.w3.org/2000/svg">
<path d="M78.0184 0L67.4986 7.68245L56.9797 0L35.8955 15.3998V39H48.1279V33.8169H41.0777V18.032L56.9797 6.41616L63.1059 10.891L56.9343 15.399V38.9991H65.2481H71.6652H78.0656V15.3998L71.894 10.8918L78.0202 6.41704L93.9231 18.0328V33.8169H86.2869V39H99.1052V15.3998L78.0184 0ZM72.8817 18.032V33.8169H71.6634H65.2464H62.1147V18.032L67.4978 14.1004L72.8817 18.032Z" fill="white"/>
<path d="M16.6158 61V50.8182H17.8487V59.9062H22.5817V61H16.6158ZM31.1726 50.8182H32.4055V57.5597C32.4055 58.2557 32.2415 58.8771 31.9134 59.424C31.5885 59.9676 31.1295 60.3968 30.5362 60.7116C29.9429 61.0232 29.2469 61.179 28.4482 61.179C27.6494 61.179 26.9534 61.0232 26.3601 60.7116C25.7668 60.3968 25.3061 59.9676 24.978 59.424C24.6532 58.8771 24.4908 58.2557 24.4908 57.5597V50.8182H25.7237V57.4602C25.7237 57.9574 25.8331 58.3999 26.0518 58.7876C26.2706 59.1721 26.5821 59.4754 26.9865 59.6974C27.3942 59.9162 27.8814 60.0256 28.4482 60.0256C29.0149 60.0256 29.5021 59.9162 29.9098 59.6974C30.3175 59.4754 30.629 59.1721 30.8445 58.7876C31.0632 58.3999 31.1726 57.9574 31.1726 57.4602V50.8182ZM35.4643 50.8182L38.0893 55.054H38.1689L40.7939 50.8182H42.2456L39.0439 55.9091L42.2456 61H40.7939L38.1689 56.8438H38.0893L35.4643 61H34.0126L37.2939 55.9091L34.0126 50.8182H35.4643ZM50.532 50.8182H51.7649V57.5597C51.7649 58.2557 51.6009 58.8771 51.2727 59.424C50.9479 59.9676 50.4889 60.3968 49.8956 60.7116C49.3023 61.0232 48.6063 61.179 47.8075 61.179C47.0088 61.179 46.3127 61.0232 45.7195 60.7116C45.1262 60.3968 44.6655 59.9676 44.3374 59.424C44.0125 58.8771 43.8501 58.2557 43.8501 57.5597V50.8182H45.0831V57.4602C45.0831 57.9574 45.1925 58.3999 45.4112 58.7876C45.63 59.1721 45.9415 59.4754 46.3459 59.6974C46.7536 59.9162 47.2408 60.0256 47.8075 60.0256C48.3743 60.0256 48.8615 59.9162 49.2692 59.6974C49.6768 59.4754 49.9884 59.1721 50.2038 58.7876C50.4226 58.3999 50.532 57.9574 50.532 57.4602V50.8182ZM54.2271 61V50.8182H57.6674C58.4629 50.8182 59.1158 50.9541 59.6262 51.2259C60.1367 51.4943 60.5145 51.8639 60.7598 52.3345C61.005 52.8052 61.1277 53.3404 61.1277 53.9403C61.1277 54.5402 61.005 55.0722 60.7598 55.5362C60.5145 56.0002 60.1383 56.3648 59.6312 56.63C59.1241 56.8918 58.4761 57.0227 57.6873 57.0227H54.9032V55.9091H57.6475C58.1911 55.9091 58.6286 55.8295 58.96 55.6705C59.2948 55.5114 59.5368 55.286 59.6859 54.9943C59.8384 54.6993 59.9146 54.348 59.9146 53.9403C59.9146 53.5327 59.8384 53.1764 59.6859 52.8714C59.5334 52.5665 59.2898 52.3312 58.9551 52.1655C58.6203 51.9964 58.1779 51.9119 57.6277 51.9119H55.46V61H54.2271ZM59.0197 56.4261L61.5254 61H60.0936L57.6277 56.4261H59.0197ZM61.9654 50.8182H63.3773L66.2012 55.571H66.3205L69.1444 50.8182H70.5563L66.8773 56.804V61H65.6444V56.804L61.9654 50.8182ZM72.1509 61V50.8182H73.3839V55.3523H78.8129V50.8182H80.0458V61H78.8129V56.446H73.3839V61H72.1509ZM91.1051 55.9091C91.1051 56.983 90.9112 57.911 90.5234 58.6932C90.1357 59.4754 89.6037 60.0786 88.9276 60.5028C88.2514 60.9271 87.4792 61.1392 86.6108 61.1392C85.7424 61.1392 84.9702 60.9271 84.294 60.5028C83.6179 60.0786 83.0859 59.4754 82.6982 58.6932C82.3104 57.911 82.1165 56.983 82.1165 55.9091C82.1165 54.8352 82.3104 53.9072 82.6982 53.125C83.0859 52.3428 83.6179 51.7396 84.294 51.3153C84.9702 50.8911 85.7424 50.679 86.6108 50.679C87.4792 50.679 88.2514 50.8911 88.9276 51.3153C89.6037 51.7396 90.1357 52.3428 90.5234 53.125C90.9112 53.9072 91.1051 54.8352 91.1051 55.9091ZM89.9119 55.9091C89.9119 55.0275 89.7644 54.2834 89.4695 53.6768C89.1778 53.0703 88.7817 52.6113 88.2812 52.2997C87.7841 51.9882 87.2273 51.8324 86.6108 51.8324C85.9943 51.8324 85.4358 51.9882 84.9354 52.2997C84.4382 52.6113 84.0421 53.0703 83.7472 53.6768C83.4555 54.2834 83.3097 55.0275 83.3097 55.9091C83.3097 56.7907 83.4555 57.5348 83.7472 58.1413C84.0421 58.7479 84.4382 59.2069 84.9354 59.5185C85.4358 59.83 85.9943 59.9858 86.6108 59.9858C87.2273 59.9858 87.7841 59.83 88.2812 59.5185C88.7817 59.2069 89.1778 58.7479 89.4695 58.1413C89.7644 57.5348 89.9119 56.7907 89.9119 55.9091ZM99.8601 50.8182H101.093V57.5597C101.093 58.2557 100.929 58.8771 100.601 59.424C100.276 59.9676 99.817 60.3968 99.2237 60.7116C98.6304 61.0232 97.9344 61.179 97.1357 61.179C96.3369 61.179 95.6409 61.0232 95.0476 60.7116C94.4543 60.3968 93.9936 59.9676 93.6655 59.424C93.3407 58.8771 93.1783 58.2557 93.1783 57.5597V50.8182H94.4112V57.4602C94.4112 57.9574 94.5206 58.3999 94.7393 58.7876C94.9581 59.1721 95.2696 59.4754 95.674 59.6974C96.0817 59.9162 96.5689 60.0256 97.1357 60.0256C97.7024 60.0256 98.1896 59.9162 98.5973 59.6974C99.005 59.4754 99.3165 59.1721 99.532 58.7876C99.7507 58.3999 99.8601 57.9574 99.8601 57.4602V50.8182ZM109.123 53.3636C109.064 52.8598 108.822 52.4688 108.398 52.1903C107.973 51.9119 107.453 51.7727 106.836 51.7727C106.386 51.7727 105.991 51.8456 105.653 51.9915C105.318 52.1373 105.057 52.3378 104.868 52.593C104.682 52.8482 104.589 53.1383 104.589 53.4631C104.589 53.7348 104.654 53.9685 104.783 54.1641C104.916 54.3563 105.085 54.517 105.29 54.6463C105.496 54.7723 105.711 54.8767 105.937 54.9595C106.162 55.0391 106.369 55.1037 106.558 55.1534L107.592 55.4318C107.857 55.5014 108.152 55.5975 108.477 55.7202C108.805 55.8428 109.118 56.0102 109.417 56.2223C109.718 56.4311 109.967 56.6996 110.162 57.0277C110.358 57.3558 110.456 57.7585 110.456 58.2358C110.456 58.786 110.312 59.2831 110.023 59.7273C109.738 60.1714 109.321 60.5244 108.77 60.7862C108.224 61.0481 107.559 61.179 106.777 61.179C106.048 61.179 105.416 61.0613 104.883 60.826C104.352 60.5907 103.935 60.2625 103.63 59.8416C103.328 59.4207 103.157 58.9318 103.118 58.375H104.39C104.424 58.7595 104.553 59.0777 104.778 59.3295C105.007 59.5781 105.295 59.7637 105.643 59.8864C105.995 60.0057 106.372 60.0653 106.777 60.0653C107.247 60.0653 107.67 59.9891 108.045 59.8366C108.419 59.6809 108.716 59.4654 108.934 59.1903C109.153 58.9119 109.263 58.5871 109.263 58.2159C109.263 57.8778 109.168 57.6027 108.979 57.3906C108.79 57.1785 108.542 57.0062 108.233 56.8736C107.925 56.741 107.592 56.625 107.234 56.5256L105.981 56.1676C105.186 55.9389 104.556 55.6125 104.092 55.1882C103.628 54.764 103.396 54.2088 103.396 53.5227C103.396 52.9527 103.55 52.4555 103.858 52.0312C104.17 51.6037 104.588 51.2723 105.111 51.0369C105.638 50.7983 106.227 50.679 106.876 50.679C107.532 50.679 108.116 50.7966 108.626 51.032C109.137 51.264 109.541 51.5821 109.839 51.9865C110.141 52.3909 110.3 52.8499 110.317 53.3636H109.123ZM112.483 61V50.8182H118.628V51.9119H113.716V55.3523H118.31V56.446H113.716V59.9062H118.707V61H112.483Z" fill="white"/>
<path d="M1.17898 76H0.255682L2.92614 68.7273H3.83523L6.50568 76H5.58239L3.40909 69.8778H3.35227L1.17898 76ZM1.51989 73.1591H5.24148V73.9403H1.51989V73.1591ZM7.52486 76V70.5455H11.8146V76H10.9766V71.3267H8.36293V76H7.52486ZM13.3452 76V70.5455H17.6349V76H16.7969V71.3267H14.1832V76H13.3452ZM20.7706 76.1278C20.425 76.1278 20.1113 76.0627 19.8295 75.9325C19.5478 75.8 19.3241 75.6094 19.1584 75.3608C18.9927 75.1098 18.9098 74.8068 18.9098 74.4517C18.9098 74.1392 18.9714 73.8859 19.0945 73.6918C19.2176 73.4953 19.3821 73.3414 19.5881 73.2301C19.794 73.1188 20.0213 73.036 20.2699 72.9815C20.5208 72.9247 20.773 72.8797 21.0263 72.8466C21.3577 72.804 21.6264 72.772 21.8324 72.7507C22.0407 72.727 22.1922 72.688 22.2869 72.6335C22.384 72.5791 22.4325 72.4844 22.4325 72.3494V72.321C22.4325 71.9706 22.3366 71.6984 22.1449 71.5043C21.9555 71.3101 21.6679 71.2131 21.282 71.2131C20.8819 71.2131 20.5682 71.3007 20.3409 71.4759C20.1136 71.651 19.9538 71.8381 19.8615 72.0369L19.0661 71.7528C19.2081 71.4214 19.3975 71.1634 19.6342 70.9787C19.8733 70.7917 20.1338 70.6615 20.4155 70.5881C20.6996 70.5123 20.9789 70.4744 21.2536 70.4744C21.4287 70.4744 21.63 70.4957 21.8572 70.5384C22.0869 70.5786 22.3082 70.6626 22.5213 70.7905C22.7367 70.9183 22.9155 71.1113 23.0575 71.3693C23.1996 71.6274 23.2706 71.973 23.2706 72.4062V76H22.4325V75.2614H22.3899C22.3331 75.3797 22.2384 75.5064 22.1058 75.6413C21.9732 75.7763 21.7969 75.8911 21.5767 75.9858C21.3565 76.0805 21.0878 76.1278 20.7706 76.1278ZM20.8984 75.375C21.2299 75.375 21.5092 75.3099 21.7365 75.1797C21.9661 75.0495 22.139 74.8814 22.255 74.6754C22.3733 74.4695 22.4325 74.2528 22.4325 74.0256V73.2585C22.397 73.3011 22.3189 73.3402 22.1982 73.3757C22.0798 73.4089 21.9425 73.4384 21.7862 73.4645C21.6323 73.4882 21.482 73.5095 21.3352 73.5284C21.1908 73.545 21.0736 73.5592 20.9837 73.571C20.7659 73.5994 20.5623 73.6456 20.3729 73.7095C20.1858 73.7711 20.0343 73.8646 19.9183 73.9901C19.8047 74.1132 19.7479 74.2812 19.7479 74.4943C19.7479 74.7855 19.8556 75.0057 20.071 75.1548C20.2888 75.3016 20.5646 75.375 20.8984 75.375ZM24.8002 78.0455V70.5455H25.6099V71.4119H25.7093C25.7709 71.3172 25.8561 71.1965 25.965 71.0497C26.0763 70.9006 26.2349 70.768 26.4409 70.652C26.6492 70.5336 26.9309 70.4744 27.286 70.4744C27.7453 70.4744 28.1502 70.5893 28.5005 70.8189C28.8509 71.0485 29.1243 71.3741 29.3208 71.7955C29.5173 72.2169 29.6156 72.714 29.6156 73.2869C29.6156 73.8646 29.5173 74.3653 29.3208 74.7891C29.1243 75.2105 28.8521 75.5372 28.5041 75.7692C28.1561 75.9988 27.7548 76.1136 27.3002 76.1136C26.9499 76.1136 26.6693 76.0556 26.4586 75.9396C26.2479 75.8213 26.0858 75.6875 25.9721 75.5384C25.8585 75.3868 25.7709 75.2614 25.7093 75.1619H25.6383V78.0455H24.8002ZM25.6241 73.2727C25.6241 73.6847 25.6845 74.0481 25.8052 74.3629C25.926 74.6754 26.1023 74.9205 26.3343 75.098C26.5663 75.2732 26.8504 75.3608 27.1866 75.3608C27.537 75.3608 27.8294 75.2685 28.0637 75.0838C28.3005 74.8968 28.478 74.6458 28.5964 74.331C28.7172 74.0137 28.7775 73.661 28.7775 73.2727C28.7775 72.8892 28.7183 72.5436 28.6 72.2358C28.484 71.9257 28.3076 71.6806 28.0708 71.5007C27.8365 71.3184 27.5417 71.2273 27.1866 71.2273C26.8457 71.2273 26.5592 71.3137 26.3272 71.4865C26.0952 71.657 25.92 71.8961 25.8017 72.2038C25.6833 72.5092 25.6241 72.8655 25.6241 73.2727ZM30.1811 71.3267V70.5455H34.6129V71.3267H32.8232V76H31.9851V71.3267H30.1811ZM37.1573 76.1278C36.8117 76.1278 36.498 76.0627 36.2163 75.9325C35.9345 75.8 35.7108 75.6094 35.5451 75.3608C35.3794 75.1098 35.2965 74.8068 35.2965 74.4517C35.2965 74.1392 35.3581 73.8859 35.4812 73.6918C35.6043 73.4953 35.7688 73.3414 35.9748 73.2301C36.1808 73.1188 36.408 73.036 36.6566 72.9815C36.9076 72.9247 37.1597 72.8797 37.413 72.8466C37.7444 72.804 38.0131 72.772 38.2191 72.7507C38.4274 72.727 38.579 72.688 38.6737 72.6335C38.7707 72.5791 38.8192 72.4844 38.8192 72.3494V72.321C38.8192 71.9706 38.7234 71.6984 38.5316 71.5043C38.3422 71.3101 38.0546 71.2131 37.6687 71.2131C37.2686 71.2131 36.9549 71.3007 36.7276 71.4759C36.5004 71.651 36.3406 71.8381 36.2482 72.0369L35.4528 71.7528C35.5948 71.4214 35.7842 71.1634 36.021 70.9787C36.2601 70.7917 36.5205 70.6615 36.8022 70.5881C37.0863 70.5123 37.3656 70.4744 37.6403 70.4744C37.8155 70.4744 38.0167 70.4957 38.244 70.5384C38.4736 70.5786 38.695 70.6626 38.908 70.7905C39.1235 70.9183 39.3022 71.1113 39.4442 71.3693C39.5863 71.6274 39.6573 71.973 39.6573 72.4062V76H38.8192V75.2614H38.7766C38.7198 75.3797 38.6251 75.5064 38.4925 75.6413C38.36 75.7763 38.1836 75.8911 37.9634 75.9858C37.7433 76.0805 37.4746 76.1278 37.1573 76.1278ZM37.2852 75.375C37.6166 75.375 37.896 75.3099 38.1232 75.1797C38.3529 75.0495 38.5257 74.8814 38.6417 74.6754C38.7601 74.4695 38.8192 74.2528 38.8192 74.0256V73.2585C38.7837 73.3011 38.7056 73.3402 38.5849 73.3757C38.4665 73.4089 38.3292 73.4384 38.1729 73.4645C38.0191 73.4882 37.8687 73.5095 37.7219 73.5284C37.5775 73.545 37.4603 73.5592 37.3704 73.571C37.1526 73.5994 36.949 73.6456 36.7596 73.7095C36.5726 73.7711 36.421 73.8646 36.305 73.9901C36.1914 74.1132 36.1346 74.2812 36.1346 74.4943C36.1346 74.7855 36.2423 75.0057 36.4577 75.1548C36.6755 75.3016 36.9513 75.375 37.2852 75.375ZM44.1699 74.8636L46.0733 70.5455H46.8688L44.5108 76H43.829L41.5137 70.5455H42.2949L44.1699 74.8636ZM42.025 70.5455V76H41.187V70.5455H42.025ZM46.3148 76V70.5455H47.1529V76H46.3148ZM50.9739 76.1136C50.4483 76.1136 49.995 75.9976 49.6138 75.7656C49.235 75.5312 48.9426 75.2045 48.7367 74.7855C48.5331 74.3641 48.4313 73.8741 48.4313 73.3153C48.4313 72.7566 48.5331 72.2642 48.7367 71.8381C48.9426 71.4096 49.2291 71.0758 49.5961 70.8366C49.9654 70.5952 50.3962 70.4744 50.8887 70.4744C51.1728 70.4744 51.4533 70.5218 51.7303 70.6165C52.0073 70.7112 52.2594 70.8651 52.4867 71.0781C52.714 71.2888 52.8951 71.5682 53.03 71.9162C53.165 72.2642 53.2324 72.6927 53.2324 73.2017V73.5568H49.0279V72.8324H52.3801C52.3801 72.5246 52.3186 72.25 52.1955 72.0085C52.0748 71.767 51.9019 71.5765 51.677 71.4368C51.4545 71.2971 51.1917 71.2273 50.8887 71.2273C50.5549 71.2273 50.266 71.3101 50.0222 71.4759C49.7807 71.6392 49.5949 71.8523 49.4647 72.1151C49.3345 72.3778 49.2694 72.6596 49.2694 72.9602V73.4432C49.2694 73.8551 49.3404 74.2043 49.4824 74.4908C49.6268 74.7749 49.8269 74.9915 50.0826 75.1406C50.3382 75.2874 50.6354 75.3608 50.9739 75.3608C51.1941 75.3608 51.3929 75.33 51.5705 75.2685C51.7504 75.2045 51.9055 75.1098 52.0357 74.9844C52.1659 74.8565 52.2665 74.6979 52.3375 74.5085L53.1472 74.7358C53.062 75.0104 52.9187 75.2519 52.7175 75.4602C52.5163 75.6662 52.2677 75.8272 51.9718 75.9432C51.6758 76.0568 51.3432 76.1136 50.9739 76.1136ZM58.1578 72.8892V73.6705H55.1465V72.8892H58.1578ZM55.3453 70.5455V76H54.5073V70.5455H55.3453ZM58.7971 70.5455V76H57.959V70.5455H58.7971ZM59.5854 71.3267V70.5455H64.0172V71.3267H62.2275V76H61.3894V71.3267H59.5854ZM65.9641 72.5199H67.5266C68.1658 72.5199 68.6547 72.6821 68.9933 73.0064C69.3318 73.3307 69.5011 73.7415 69.5011 74.2386C69.5011 74.5653 69.4253 74.8625 69.2738 75.13C69.1223 75.3951 68.8997 75.607 68.6062 75.7656C68.3126 75.9219 67.9528 76 67.5266 76H65.2397V70.5455H66.0778V75.2188H67.5266C67.8581 75.2188 68.1303 75.1312 68.3434 74.956C68.5565 74.7808 68.663 74.5559 68.663 74.2812C68.663 73.9924 68.5565 73.7569 68.3434 73.5746C68.1303 73.3923 67.8581 73.3011 67.5266 73.3011H65.9641V72.5199ZM70.3675 76V70.5455H71.2056V76H70.3675ZM76.3903 74.7642L79.0181 70.5455H79.984V76H79.146V71.7812L76.5323 76H75.5522V70.5455H76.3903V74.7642ZM84.019 71.3267V70.5455H88.4508V71.3267H86.661V76H85.823V71.3267H84.019ZM90.9952 76.1278C90.6496 76.1278 90.3359 76.0627 90.0542 75.9325C89.7724 75.8 89.5487 75.6094 89.383 75.3608C89.2173 75.1098 89.1344 74.8068 89.1344 74.4517C89.1344 74.1392 89.196 73.8859 89.3191 73.6918C89.4422 73.4953 89.6067 73.3414 89.8127 73.2301C90.0186 73.1188 90.2459 73.036 90.4945 72.9815C90.7454 72.9247 90.9976 72.8797 91.2509 72.8466C91.5823 72.804 91.851 72.772 92.057 72.7507C92.2653 72.727 92.4168 72.688 92.5115 72.6335C92.6086 72.5791 92.6571 72.4844 92.6571 72.3494V72.321C92.6571 71.9706 92.5613 71.6984 92.3695 71.5043C92.1801 71.3101 91.8925 71.2131 91.5066 71.2131C91.1065 71.2131 90.7928 71.3007 90.5655 71.4759C90.3382 71.651 90.1784 71.8381 90.0861 72.0369L89.2907 71.7528C89.4327 71.4214 89.6221 71.1634 89.8588 70.9787C90.098 70.7917 90.3584 70.6615 90.6401 70.5881C90.9242 70.5123 91.2035 70.4744 91.4782 70.4744C91.6533 70.4744 91.8546 70.4957 92.0819 70.5384C92.3115 70.5786 92.5328 70.6626 92.7459 70.7905C92.9614 70.9183 93.1401 71.1113 93.2821 71.3693C93.4242 71.6274 93.4952 71.973 93.4952 72.4062V76H92.6571V75.2614H92.6145C92.5577 75.3797 92.463 75.5064 92.3304 75.6413C92.1979 75.7763 92.0215 75.8911 91.8013 75.9858C91.5811 76.0805 91.3124 76.1278 90.9952 76.1278ZM91.123 75.375C91.4545 75.375 91.7338 75.3099 91.9611 75.1797C92.1908 75.0495 92.3636 74.8814 92.4796 74.6754C92.598 74.4695 92.6571 74.2528 92.6571 74.0256V73.2585C92.6216 73.3011 92.5435 73.3402 92.4228 73.3757C92.3044 73.4089 92.1671 73.4384 92.0108 73.4645C91.8569 73.4882 91.7066 73.5095 91.5598 73.5284C91.4154 73.545 91.2982 73.5592 91.2083 73.571C90.9905 73.5994 90.7869 73.6456 90.5975 73.7095C90.4105 73.7711 90.2589 73.8646 90.1429 73.9901C90.0293 74.1132 89.9725 74.2812 89.9725 74.4943C89.9725 74.7855 90.0802 75.0057 90.2956 75.1548C90.5134 75.3016 90.7892 75.375 91.123 75.375ZM95.3693 78.0455C95.2273 78.0455 95.1006 78.0336 94.9893 78.0099C94.8781 77.9886 94.8011 77.9673 94.7585 77.946L94.9716 77.2074C95.1752 77.2595 95.3551 77.2784 95.5114 77.2642C95.6676 77.25 95.8061 77.1802 95.9268 77.0547C96.05 76.9316 96.1624 76.7315 96.2642 76.4545L96.4205 76.0284L94.4034 70.5455H95.3125L96.8182 74.892H96.875L98.3807 70.5455H99.2898L96.9744 76.7955C96.8703 77.0772 96.7412 77.3104 96.5874 77.495C96.4335 77.6821 96.2547 77.8205 96.0511 77.9105C95.8499 78.0005 95.6226 78.0455 95.3693 78.0455ZM104.047 72.8892V73.6705H101.035V72.8892H104.047ZM101.234 70.5455V76H100.396V70.5455H101.234ZM104.686 70.5455V76H103.848V70.5455H104.686ZM106.841 70.5455L108.148 72.7756L109.455 70.5455H110.421L108.659 73.2727L110.421 76H109.455L108.148 73.8835L106.841 76H105.875L107.608 73.2727L105.875 70.5455H106.841ZM113.222 76.1278C112.876 76.1278 112.562 76.0627 112.281 75.9325C111.999 75.8 111.775 75.6094 111.61 75.3608C111.444 75.1098 111.361 74.8068 111.361 74.4517C111.361 74.1392 111.423 73.8859 111.546 73.6918C111.669 73.4953 111.833 73.3414 112.039 73.2301C112.245 73.1188 112.472 73.036 112.721 72.9815C112.972 72.9247 113.224 72.8797 113.477 72.8466C113.809 72.804 114.078 72.772 114.284 72.7507C114.492 72.727 114.643 72.688 114.738 72.6335C114.835 72.5791 114.884 72.4844 114.884 72.3494V72.321C114.884 71.9706 114.788 71.6984 114.596 71.5043C114.407 71.3101 114.119 71.2131 113.733 71.2131C113.333 71.2131 113.019 71.3007 112.792 71.4759C112.565 71.651 112.405 71.8381 112.313 72.0369L111.517 71.7528C111.659 71.4214 111.849 71.1634 112.085 70.9787C112.325 70.7917 112.585 70.6615 112.867 70.5881C113.151 70.5123 113.43 70.4744 113.705 70.4744C113.88 70.4744 114.081 70.4957 114.308 70.5384C114.538 70.5786 114.759 70.6626 114.972 70.7905C115.188 70.9183 115.367 71.1113 115.509 71.3693C115.651 71.6274 115.722 71.973 115.722 72.4062V76H114.884V75.2614H114.841C114.784 75.3797 114.69 75.5064 114.557 75.6413C114.424 75.7763 114.248 75.8911 114.028 75.9858C113.808 76.0805 113.539 76.1278 113.222 76.1278ZM113.35 75.375C113.681 75.375 113.96 75.3099 114.188 75.1797C114.417 75.0495 114.59 74.8814 114.706 74.6754C114.825 74.4695 114.884 74.2528 114.884 74.0256V73.2585C114.848 73.3011 114.77 73.3402 114.649 73.3757C114.531 73.4089 114.394 73.4384 114.237 73.4645C114.084 73.4882 113.933 73.5095 113.786 73.5284C113.642 73.545 113.525 73.5592 113.435 73.571C113.217 73.5994 113.013 73.6456 112.824 73.7095C112.637 73.7711 112.485 73.8646 112.369 73.9901C112.256 74.1132 112.199 74.2812 112.199 74.4943C112.199 74.7855 112.307 75.0057 112.522 75.1548C112.74 75.3016 113.016 75.375 113.35 75.375ZM117.596 78.0455C117.454 78.0455 117.327 78.0336 117.216 78.0099C117.105 77.9886 117.028 77.9673 116.985 77.946L117.198 77.2074C117.402 77.2595 117.582 77.2784 117.738 77.2642C117.894 77.25 118.033 77.1802 118.153 77.0547C118.277 76.9316 118.389 76.7315 118.491 76.4545L118.647 76.0284L116.63 70.5455H117.539L119.045 74.892H119.102L120.607 70.5455H121.516L119.201 76.7955C119.097 77.0772 118.968 77.3104 118.814 77.495C118.66 77.6821 118.481 77.8205 118.278 77.9105C118.076 78.0005 117.849 78.0455 117.596 78.0455ZM124.643 76.1136C124.132 76.1136 123.691 75.9929 123.322 75.7514C122.953 75.5099 122.669 75.1773 122.47 74.7536C122.271 74.3298 122.172 73.8456 122.172 73.3011C122.172 72.7472 122.273 72.2583 122.477 71.8345C122.683 71.4084 122.969 71.0758 123.336 70.8366C123.706 70.5952 124.136 70.4744 124.629 70.4744C125.012 70.4744 125.358 70.5455 125.666 70.6875C125.974 70.8295 126.226 71.0284 126.422 71.2841C126.619 71.5398 126.741 71.8381 126.788 72.179H125.95C125.886 71.9304 125.744 71.7102 125.524 71.5185C125.306 71.3243 125.012 71.2273 124.643 71.2273C124.316 71.2273 124.03 71.3125 123.784 71.483C123.54 71.651 123.349 71.889 123.212 72.1967C123.077 72.5021 123.01 72.8608 123.01 73.2727C123.01 73.6941 123.076 74.0611 123.208 74.3736C123.343 74.6861 123.533 74.9287 123.777 75.1016C124.023 75.2744 124.312 75.3608 124.643 75.3608C124.861 75.3608 125.059 75.3229 125.236 75.2472C125.414 75.1714 125.564 75.0625 125.687 74.9205C125.81 74.7784 125.898 74.608 125.95 74.4091H126.788C126.741 74.7311 126.623 75.0211 126.436 75.2791C126.252 75.5348 126.007 75.7384 125.701 75.8899C125.398 76.0391 125.046 76.1136 124.643 76.1136ZM128.738 72.5199H130.3C130.939 72.5199 131.428 72.6821 131.767 73.0064C132.105 73.3307 132.275 73.7415 132.275 74.2386C132.275 74.5653 132.199 74.8625 132.047 75.13C131.896 75.3951 131.673 75.607 131.38 75.7656C131.086 75.9219 130.726 76 130.3 76H128.013V70.5455H128.851V75.2188H130.3C130.632 75.2188 130.904 75.1312 131.117 74.956C131.33 74.7808 131.436 74.5559 131.436 74.2812C131.436 73.9924 131.33 73.7569 131.117 73.5746C130.904 73.3923 130.632 73.3011 130.3 73.3011H128.738V72.5199ZM133.141 76V70.5455H133.979V76H133.141Z" fill="white"/>
</svg>
