<svg width="25" height="25" viewBox="0 0 25 25" fill="none" xmlns="http://www.w3.org/2000/svg">
<rect width="25" height="25" fill="#F1F2F6"/>
<path d="M12.5 20C12.4815 20 12.4629 19.9983 12.4446 19.9947C10.6672 19.6529 9.0535 18.6962 7.90073 17.3007C6.74809 15.9052 6.11328 14.1398 6.11328 12.3298V7.2023C6.11328 7.07424 6.19648 6.96095 6.3187 6.92272L12.4032 5.01648C12.434 5.00572 12.4677 5.00069 12.5 5H12.5003C12.5335 5 12.5661 5.00572 12.5969 5.01648L18.6813 6.92272C18.8035 6.96106 18.8867 7.07424 18.8867 7.2023V12.3298C18.8867 14.1398 18.2519 15.9052 17.0992 17.3007C15.9465 18.6962 14.3328 19.6529 12.5554 19.9947C12.5371 19.9983 12.5185 20 12.5 20ZM6.69922 7.41745V12.3298C6.69922 15.7665 9.13532 18.7344 12.5 19.4085C15.8647 18.7344 18.3007 15.7665 18.3007 12.3298V7.41745L12.5 5.60013L6.69922 7.41745Z" fill="#4F5053"/>
<path d="M12.5 18.3206C12.4762 18.3206 12.4524 18.3177 12.4293 18.312C11.1066 17.9829 9.91306 17.2083 9.06837 16.1311C8.22071 15.0499 7.75391 13.6999 7.75391 12.3298V8.40747C7.75391 8.27941 7.8371 8.16623 7.95921 8.12801L12.4123 6.73286C12.4693 6.715 12.5306 6.715 12.5875 6.73286L17.0407 8.12801C17.1628 8.16623 17.246 8.27941 17.246 8.40747V12.3298C17.246 13.3313 16.9979 14.3282 16.5285 15.2127C16.4527 15.3556 16.2754 15.4099 16.1325 15.3341C15.9895 15.2582 15.9352 15.081 16.0109 14.938C16.4356 14.1379 16.66 13.236 16.66 12.3298V8.62273L12.4999 7.31937L8.33984 8.62273V12.3298C8.33984 14.873 10.0468 17.0813 12.4999 17.7253C13.1814 17.5464 13.8146 17.2437 14.3831 16.8249C14.5134 16.729 14.6968 16.7569 14.7927 16.8871C14.8887 17.0173 14.8609 17.2008 14.7306 17.2967C14.0804 17.7756 13.3537 18.1171 12.5706 18.312C12.5475 18.3177 12.5237 18.3206 12.5 18.3206Z" fill="#4F5053"/>
<path d="M11.9678 14.7048C11.8928 14.7048 11.8179 14.6762 11.7607 14.619L9.79884 12.6571C9.6844 12.5428 9.6844 12.3573 9.79884 12.2429L10.7932 11.2485C10.8482 11.1935 10.9227 11.1626 11.0004 11.1626C11.0781 11.1626 11.1526 11.1935 11.2075 11.2485L11.9678 12.0088L13.7924 10.1842C13.9068 10.0698 14.0923 10.0697 14.2068 10.1842L15.2011 11.1786C15.2561 11.2335 15.287 11.308 15.287 11.3857C15.287 11.4634 15.2561 11.5379 15.2011 11.5928L12.175 14.619C12.1178 14.6762 12.0428 14.7048 11.9678 14.7048ZM10.4203 12.45L11.9678 13.9975L14.5796 11.3857L13.9995 10.8057L12.175 12.6304C12.12 12.6853 12.0455 12.7161 11.9678 12.7161C11.8901 12.7161 11.8156 12.6853 11.7607 12.6304L11.0004 11.87L10.4203 12.45Z" fill="#4F5053"/>
<path d="M15.5239 16.4581C15.4469 16.4581 15.3713 16.4269 15.3168 16.3722C15.2623 16.3177 15.231 16.2421 15.231 16.1651C15.231 16.0881 15.2623 16.0124 15.3168 15.9579C15.3713 15.9035 15.4469 15.8721 15.5239 15.8721C15.6009 15.8721 15.6766 15.9035 15.7311 15.9579C15.7855 16.0124 15.8169 16.0881 15.8169 16.1651C15.8169 16.2421 15.7855 16.3177 15.7311 16.3722C15.6766 16.4269 15.6009 16.4581 15.5239 16.4581Z" fill="#4F5053"/>
</svg>
