<svg width="25" height="25" viewBox="0 0 25 25" fill="none" xmlns="http://www.w3.org/2000/svg">
<rect width="25" height="25" fill="#F1F2F6"/>
<path d="M18.0251 10.7311C18.265 7.77777 15.9299 4.42843 12.8186 5.08279C12.7677 5.09344 12.7162 5.0935 12.6654 5.08279C9.60959 4.44052 7.213 7.70631 7.45881 10.7311C7.18118 10.9316 7 11.2579 7 11.6258C7 12.3031 7.61067 12.8299 8.29111 12.7132C8.44653 13.244 8.69682 13.7426 9.0337 14.1899C8.59998 14.5131 8.7187 15.2093 9.25586 15.3551C9.28596 15.3633 9.31644 15.3708 9.34668 15.3788C9.28869 15.8438 9.38746 16.3025 9.52314 16.5473C9.18525 16.9065 8.91205 17.3155 8.71011 17.7657C8.27808 18.729 8.92924 19.8467 10.0453 19.9216C10.4112 20.035 15.1316 20.0168 15.4387 19.9216C16.5624 19.8462 17.203 18.7226 16.7738 17.7657C16.5719 17.3155 16.2988 16.9065 15.9609 16.5474C16.0961 16.3034 16.195 15.8475 16.137 15.379C16.1673 15.371 16.1978 15.3633 16.2281 15.3551C16.7645 15.2095 16.8844 14.5135 16.4503 14.19C16.7872 13.7427 17.0375 13.2441 17.1929 12.7132C17.8739 12.8299 18.484 12.3026 18.484 11.6258C18.4839 11.2579 18.3028 10.9317 18.0251 10.7311ZM12.5749 5.51343C12.6858 5.5367 12.7982 5.5367 12.9091 5.51343C15.6409 4.93866 17.7263 7.88878 17.5962 10.5436C17.2204 10.4688 16.818 10.5913 16.5495 10.9C16.3568 10.8185 16.1817 10.6885 16.0268 10.5116C15.8072 10.2607 15.4926 10.1236 15.1641 10.1346C15.0426 10.1388 14.9476 10.2406 14.9518 10.362C14.956 10.4863 15.0619 10.5796 15.1792 10.5743C15.3752 10.5683 15.5635 10.6504 15.6957 10.8013C15.9484 11.09 16.2753 11.3052 16.6486 11.3939C16.8211 11.4349 16.9389 11.6025 16.9227 11.7839C16.8476 12.6237 16.5254 13.4089 15.9908 14.0617C15.9545 14.0653 15.9182 14.0714 15.8822 14.0811C12.4204 15.021 9.75019 14.0875 9.49318 14.0617C8.95858 13.4089 8.63642 12.6237 8.56126 11.7838C8.54501 11.6025 8.66285 11.4349 8.83528 11.3939C9.17883 11.3124 9.51378 11.1149 9.78821 10.8014C9.92374 10.6466 10.1244 10.5618 10.325 10.5754C11.0581 10.6239 11.8038 10.5015 12.4817 10.2213C12.9508 10.0275 13.0876 10.4092 14.2617 10.5512C14.3823 10.5653 14.4919 10.4797 14.5065 10.3591C14.5211 10.2385 14.4351 10.1289 14.3145 10.1143C13.9214 10.0668 13.5364 9.96596 13.1703 9.81464C12.8941 9.70038 12.5898 9.70047 12.3136 9.81461C11.6978 10.0692 11.0202 10.1805 10.354 10.1363C10.0174 10.1137 9.68231 10.2543 9.4571 10.5116C9.3023 10.6884 9.12711 10.8185 8.93443 10.9C8.66593 10.5912 8.26353 10.4688 7.88778 10.5436C7.75659 7.86792 9.85639 4.94174 12.5749 5.51343ZM7.44003 11.6258C7.44003 11.0901 8.04358 10.7802 8.47806 11.0779C8.24001 11.2378 8.096 11.5221 8.12296 11.8231C8.13686 11.9784 8.15848 12.132 8.18744 12.2835C7.78352 12.3342 7.44003 12.0186 7.44003 11.6258ZM15.5702 19.4643C15.5313 19.1142 15.4696 18.7641 15.3853 18.4206C15.3563 18.3026 15.2371 18.2304 15.1192 18.2594C15.0012 18.2883 14.929 18.4075 14.958 18.5255C15.0367 18.8463 15.0946 19.1733 15.1314 19.5003C13.5442 19.5957 11.9396 19.5957 10.3525 19.5003C10.3893 19.1732 10.4472 18.8463 10.526 18.5255C10.5549 18.4075 10.4828 18.2883 10.3647 18.2593C10.2467 18.2303 10.1276 18.3026 10.0986 18.4206C10.0143 18.764 9.95258 19.1141 9.91374 19.4643C9.23374 19.3393 8.81821 18.5999 9.11156 17.9458C9.28693 17.5548 9.52205 17.1984 9.81159 16.8833C9.93542 16.9793 10.0797 17.0496 10.2364 17.0854C11.8759 17.4598 13.6091 17.4595 15.2486 17.0851C15.4048 17.0495 15.5487 16.9793 15.6724 16.8833C15.9619 17.1984 16.197 17.5549 16.3723 17.9458C16.6657 18.5998 16.2503 19.3393 15.5702 19.4643ZM16.246 14.8275C16.2168 14.8785 16.1695 14.915 16.1128 14.9304C14.5593 15.3523 12.8984 15.4886 11.2217 15.2895C11.101 15.2752 10.9916 15.3614 10.9773 15.482C10.963 15.6027 11.0492 15.7121 11.1698 15.7265C12.6852 15.9065 14.2181 15.8249 15.7058 15.4851C15.7295 15.7341 15.703 15.98 15.626 16.2188C15.5554 16.4377 15.3732 16.6053 15.1505 16.6562C13.5747 17.016 11.9093 17.0161 10.3343 16.6564C10.1113 16.6055 9.92896 16.4385 9.85847 16.2205C9.7807 15.9801 9.75383 15.7337 9.77762 15.4853C9.94184 15.5228 10.1068 15.5574 10.2714 15.5885C10.3909 15.6111 10.5059 15.5325 10.5284 15.4131C10.551 15.2937 10.4725 15.1786 10.3531 15.1561C10.0241 15.094 9.69372 15.018 9.37106 14.9304C9.25369 14.8986 9.18458 14.7778 9.21641 14.6605C9.24829 14.5431 9.36904 14.4739 9.48641 14.5058C11.6162 15.084 13.8676 15.084 15.9975 14.5058C16.1851 14.4548 16.3437 14.6571 16.246 14.8275ZM17.2965 12.2835C17.3255 12.132 17.3471 11.9784 17.361 11.8231C17.3879 11.5221 17.2439 11.2379 17.0058 11.0779C17.4398 10.7806 18.0439 11.0896 18.0439 11.6259C18.0439 12.0185 17.7004 12.3343 17.2965 12.2835Z" fill="#4F5053"/>
<path d="M10.9372 11.3821C10.3145 11.3821 10.1179 12.2259 10.5334 12.2259C10.6549 12.2259 10.7534 12.1274 10.7534 12.0059C10.7534 11.9046 10.8359 11.8221 10.9372 11.8221C11.0386 11.8221 11.121 11.9046 11.121 12.0059C11.121 12.1274 11.2195 12.2259 11.341 12.2259C11.4625 12.2259 11.561 12.1274 11.561 12.0059C11.561 11.6619 11.2812 11.3821 10.9372 11.3821Z" fill="#4F5053"/>
<path d="M14.1429 12.2259C14.2644 12.2259 14.363 12.1274 14.363 12.0059C14.363 11.9045 14.4454 11.8221 14.5467 11.8221C14.6481 11.8221 14.7305 11.9045 14.7305 12.0059C14.7305 12.1274 14.829 12.2259 14.9505 12.2259C15.072 12.2259 15.1706 12.1274 15.1706 12.0059C15.1706 11.6619 14.8907 11.382 14.5467 11.382C13.924 11.3821 13.7273 12.2259 14.1429 12.2259Z" fill="#4F5053"/>
<path d="M13.3148 12.312C13.2232 12.2321 13.0842 12.2417 13.0044 12.3333C12.8654 12.4928 12.6185 12.4928 12.4794 12.3333C12.3996 12.2416 12.2606 12.2321 12.169 12.312C11.8096 12.6251 12.7868 13.2526 13.3361 12.6224C13.416 12.5308 13.4064 12.3918 13.3148 12.312Z" fill="#4F5053"/>
</svg>
