<svg width="25" height="25" viewBox="0 0 25 25" fill="none" xmlns="http://www.w3.org/2000/svg">
<rect width="25" height="25" fill="#F1F2F6"/>
<path d="M11.9612 7.90631C11.9612 7.27084 11.4442 6.75386 10.8087 6.75386C10.1732 6.75386 9.65625 7.27084 9.65625 7.90631C9.65625 8.54178 10.1732 9.05876 10.8087 9.05876C11.4442 9.05876 11.9612 8.54178 11.9612 7.90631ZM10.8087 8.79579C10.3182 8.79579 9.91923 8.39678 9.91923 7.90631C9.91923 7.41585 10.3182 7.01684 10.8087 7.01684C11.2992 7.01684 11.6982 7.41585 11.6982 7.90631C11.6982 8.39678 11.2992 8.79579 10.8087 8.79579Z" fill="#4F5053"/>
<path d="M10.8087 7.24887C10.4462 7.24887 10.1512 7.54377 10.1512 7.90631C10.1512 8.26884 10.4462 8.56375 10.8087 8.56375C11.1712 8.56375 11.4661 8.26884 11.4661 7.90631C11.4661 7.54377 11.1712 7.24887 10.8087 7.24887ZM10.8087 8.30077C10.5912 8.30077 10.4142 8.12381 10.4142 7.90631C10.4142 7.68881 10.5912 7.51185 10.8087 7.51185C11.0262 7.51185 11.2031 7.68881 11.2031 7.90631C11.2031 8.12384 11.0262 8.30077 10.8087 8.30077Z" fill="#4F5053"/>
<path d="M14.402 9.05876C15.0374 9.05876 15.5544 8.54178 15.5544 7.90631C15.5544 7.27084 15.0374 6.75386 14.402 6.75386C13.7665 6.75386 13.2495 7.27084 13.2495 7.90631C13.2495 8.54178 13.7665 9.05876 14.402 9.05876ZM14.402 7.01684C14.8924 7.01684 15.2914 7.41585 15.2914 7.90631C15.2914 8.39678 14.8924 8.79579 14.402 8.79579C13.9115 8.79579 13.5125 8.39678 13.5125 7.90631C13.5125 7.41588 13.9115 7.01684 14.402 7.01684Z" fill="#4F5053"/>
<path d="M14.4019 8.56375C14.7644 8.56375 15.0594 8.26884 15.0594 7.90631C15.0594 7.54377 14.7644 7.24887 14.4019 7.24887C14.0394 7.24887 13.7445 7.54377 13.7445 7.90631C13.7445 8.26884 14.0394 8.56375 14.4019 8.56375ZM14.4019 7.51185C14.6194 7.51185 14.7964 7.68881 14.7964 7.90631C14.7964 8.12381 14.6194 8.30077 14.4019 8.30077C14.1844 8.30077 14.0075 8.12381 14.0075 7.90631C14.0075 7.68881 14.1844 7.51185 14.4019 7.51185Z" fill="#4F5053"/>
<path d="M17.7592 15.6704V12.3807C17.7592 11.6323 17.1503 11.0234 16.4019 11.0234H14.5875H14.4019H13.8797V10.311H15.5848C15.9815 10.311 16.3042 9.98834 16.3042 9.59171V9.05864C16.936 9.0544 17.4489 8.53925 17.4489 7.90637C17.4489 7.2735 16.936 6.75835 16.3042 6.75411V6.49803C16.3042 6.1014 15.9815 5.77872 15.5848 5.77872H15.1304C14.4105 5.08997 13.4053 5 12.6053 5C11.8053 5 10.8001 5.08997 10.0802 5.77872H9.62578C9.22915 5.77872 8.90647 6.1014 8.90647 6.49803V6.75405C8.27458 6.75829 7.76175 7.27344 7.76175 7.90631C7.76175 8.53919 8.27458 9.05434 8.90647 9.05858V9.59165C8.90647 9.98827 9.22915 10.311 9.62578 10.311H11.3309V11.0233H10.7169H10.6231H8.71685C7.96845 11.0233 7.35955 11.6322 7.35955 12.3806V15.6703C6.59866 15.738 6 16.3786 6 17.1568C6 17.2701 6.01318 17.3843 6.03917 17.496C6.05303 17.5556 6.10609 17.5977 6.16725 17.5977H6.87029C6.91584 17.5977 6.95813 17.5741 6.98211 17.5354C7.00608 17.4967 7.00831 17.4484 6.98801 17.4076C6.94897 17.3292 6.92917 17.2448 6.92917 17.1568C6.92917 16.846 7.18203 16.5932 7.49283 16.5932C7.80364 16.5932 8.0565 16.846 8.0565 17.1568C8.0565 17.2448 8.0367 17.3292 7.99765 17.4076C7.97736 17.4483 7.97959 17.4967 8.00353 17.5354C8.02751 17.5741 8.0698 17.5977 8.11534 17.5977H8.81839C8.87955 17.5977 8.93261 17.5556 8.94647 17.496C8.97246 17.3843 8.98564 17.2701 8.98564 17.1568C8.98564 16.3775 8.38516 15.7361 7.62262 15.67V12.3807C7.62262 11.7773 8.11352 11.2864 8.71694 11.2864H10.0676C9.96539 11.4106 9.90392 11.5696 9.90392 11.7427V16.2287C9.90392 16.5516 10.1177 16.8254 10.4112 16.9161C10.375 16.9796 10.354 17.0528 10.354 17.131C10.354 17.2493 10.4016 17.3565 10.4783 17.4352C10.4016 17.5137 10.354 17.621 10.354 17.7393C10.354 17.8576 10.4016 17.9649 10.4784 18.0435C10.4016 18.122 10.354 18.2293 10.354 18.3476C10.354 18.466 10.4016 18.5732 10.4783 18.6518C10.4016 18.7304 10.354 18.8377 10.354 18.956C10.354 19.0173 10.3669 19.0757 10.3899 19.1287H9.55193C9.3117 19.1287 9.11626 19.3241 9.11626 19.5643C9.11626 19.8046 9.3117 20 9.55193 20H11.8931C12.1334 20 12.3288 19.8046 12.3288 19.5643C12.3288 19.446 12.2812 19.3387 12.2044 19.2601C12.2812 19.1816 12.3288 19.0743 12.3288 18.956C12.3288 18.8377 12.2812 18.7304 12.2045 18.6518C12.2812 18.5732 12.3288 18.466 12.3288 18.3476C12.3288 18.2293 12.2812 18.122 12.2044 18.0435C12.2812 17.9649 12.3288 17.8576 12.3288 17.7393C12.3288 17.621 12.2812 17.5137 12.2045 17.4352C12.2812 17.3565 12.3288 17.2493 12.3288 17.131C12.3288 17.0656 12.3139 17.0037 12.288 16.948H12.7328C12.7069 17.0037 12.692 17.0656 12.692 17.131C12.692 17.2493 12.7395 17.3565 12.8163 17.4352C12.7395 17.5137 12.692 17.621 12.692 17.7393C12.692 17.8576 12.7395 17.9649 12.8163 18.0435C12.7395 18.122 12.692 18.2293 12.692 18.3476C12.692 18.466 12.7395 18.5732 12.8163 18.6518C12.7395 18.7304 12.692 18.8377 12.692 18.956C12.692 19.0743 12.7395 19.1816 12.8163 19.2601C12.7395 19.3387 12.692 19.446 12.692 19.5643C12.692 19.8046 12.8874 20 13.1276 20H15.4688C15.709 20 15.9044 19.8046 15.9044 19.5643C15.9044 19.3241 15.709 19.1287 15.4688 19.1287H14.6309C14.6539 19.0757 14.6668 19.0173 14.6668 18.956C14.6668 18.8377 14.6193 18.7304 14.5425 18.6518C14.6193 18.5732 14.6668 18.466 14.6668 18.3476C14.6668 18.2293 14.6193 18.122 14.5425 18.0435C14.6193 17.9649 14.6668 17.8576 14.6668 17.7393C14.6668 17.621 14.6193 17.5137 14.5425 17.4352C14.6193 17.3565 14.6668 17.2493 14.6668 17.131C14.6668 17.0652 14.6517 17.003 14.6255 16.947C15.0046 16.9271 15.3068 16.6126 15.3068 16.2287V11.7427C15.3068 11.5696 15.2454 11.4106 15.1431 11.2863H16.4019C17.0053 11.2863 17.4962 11.7772 17.4962 12.3806V15.6701C16.7337 15.7361 16.1332 16.3775 16.1332 17.1569C16.1332 17.2702 16.1464 17.3843 16.1724 17.496C16.1862 17.5556 16.2393 17.5977 16.3004 17.5977H17.0035C17.049 17.5977 17.0913 17.5742 17.1153 17.5355C17.1392 17.4967 17.1415 17.4484 17.1212 17.4076C17.0821 17.3292 17.0623 17.2448 17.0623 17.1569C17.0623 16.8461 17.3152 16.5932 17.626 16.5932C17.9368 16.5932 18.1897 16.8461 18.1897 17.1569C18.1897 17.2449 18.1699 17.3292 18.1308 17.4076C18.1105 17.4484 18.1127 17.4967 18.1367 17.5355C18.1607 17.5742 18.203 17.5977 18.2485 17.5977H18.9515C19.0127 17.5977 19.0658 17.5556 19.0796 17.496C19.1056 17.3843 19.1188 17.2702 19.1188 17.1569C19.1188 16.3787 18.5201 15.738 17.7592 15.6704ZM17.1859 7.90631C17.1859 8.39418 16.7911 8.7914 16.3042 8.7956V7.01702C16.7911 7.02123 17.1859 7.41848 17.1859 7.90631ZM8.02473 7.90631C8.02473 7.41845 8.41956 7.02123 8.90647 7.01702V8.7956C8.41956 8.79143 8.02473 8.39418 8.02473 7.90631ZM8.72257 17.1569C8.72257 17.2161 8.71818 17.2756 8.70951 17.3348H8.30029C8.31304 17.2769 8.31944 17.2175 8.31944 17.1569C8.31944 16.7011 7.94862 16.3303 7.4928 16.3303C7.03699 16.3303 6.66616 16.7011 6.66616 17.1569C6.66616 17.2175 6.67257 17.2769 6.68531 17.3348H6.27603C6.26734 17.2756 6.26298 17.2161 6.26298 17.1569C6.26298 16.4788 6.81467 15.9271 7.49277 15.9271C8.17088 15.9271 8.72257 16.4788 8.72257 17.1569ZM12.6053 5.26298C13.5735 5.26298 14.2308 5.41977 14.7231 5.77872H10.4876C10.9798 5.41977 11.6371 5.26298 12.6053 5.26298ZM9.16944 9.59168V6.49803C9.16944 6.24641 9.37416 6.04169 9.62578 6.04169H10.1332H15.0774H15.5849C15.8365 6.04169 16.0412 6.24641 16.0412 6.49803V9.59168C16.0412 9.8433 15.8365 10.048 15.5849 10.048H13.7482H11.4624H9.62578C9.37413 10.048 9.16944 9.8433 9.16944 9.59168ZM11.5939 10.311H13.6167V11.0233H11.5939V10.311ZM11.8931 17.3037H10.7896C10.6943 17.3037 10.6169 17.2262 10.6169 17.131C10.6169 17.0357 10.6944 16.9583 10.7896 16.9583H11.8931C11.9884 16.9583 12.0658 17.0357 12.0658 17.131C12.0658 17.2262 11.9884 17.3037 11.8931 17.3037ZM12.0658 17.7393C12.0658 17.8345 11.9884 17.912 11.8931 17.912H10.7896C10.6943 17.912 10.6169 17.8345 10.6169 17.7393C10.6169 17.6441 10.6944 17.5666 10.7896 17.5666H11.8931C11.9884 17.5666 12.0658 17.6441 12.0658 17.7393ZM12.0658 18.3476C12.0658 18.4429 11.9884 18.5203 11.8931 18.5203H10.7896C10.6943 18.5203 10.6169 18.4429 10.6169 18.3476C10.6169 18.2524 10.6944 18.175 10.7896 18.175H11.8931C11.9884 18.175 12.0658 18.2524 12.0658 18.3476ZM10.6169 18.956C10.6169 18.8608 10.6944 18.7833 10.7896 18.7833H11.8931C11.9884 18.7833 12.0658 18.8608 12.0658 18.956C12.0658 19.0512 11.9884 19.1287 11.8931 19.1287H10.7896C10.6944 19.1287 10.6169 19.0512 10.6169 18.956ZM11.8931 19.737H9.55193C9.45671 19.737 9.37924 19.6596 9.37924 19.5643C9.37924 19.4691 9.45671 19.3916 9.55193 19.3916H10.7896H11.8931C11.9884 19.3916 12.0658 19.4691 12.0658 19.5643C12.0658 19.6596 11.9884 19.737 11.8931 19.737ZM14.2312 17.3037H13.1276C13.0324 17.3037 12.955 17.2262 12.955 17.131C12.955 17.0357 13.0324 16.9583 13.1276 16.9583H14.2312C14.3264 16.9583 14.4039 17.0357 14.4039 17.131C14.4039 17.2262 14.3264 17.3037 14.2312 17.3037ZM14.4039 17.7393C14.4039 17.8345 14.3264 17.912 14.2312 17.912H13.1276C13.0324 17.912 12.9549 17.8345 12.9549 17.7393C12.9549 17.6441 13.0324 17.5666 13.1276 17.5666H14.2312C14.3264 17.5666 14.4039 17.6441 14.4039 17.7393ZM14.4039 18.3476C14.4039 18.4429 14.3264 18.5203 14.2312 18.5203H13.1276C13.0324 18.5203 12.9549 18.4429 12.9549 18.3476C12.9549 18.2524 13.0324 18.175 13.1276 18.175H14.2312C14.3264 18.175 14.4039 18.2524 14.4039 18.3476ZM15.6415 19.5643C15.6415 19.6596 15.564 19.737 15.4688 19.737H13.1276C13.0324 19.737 12.955 19.6596 12.955 19.5643C12.955 19.4691 13.0324 19.3916 13.1276 19.3916H14.2312H15.4688C15.564 19.3916 15.6415 19.4691 15.6415 19.5643ZM13.1276 19.1287C13.0324 19.1287 12.955 19.0512 12.955 18.956C12.955 18.8608 13.0324 18.7833 13.1276 18.7833H14.2312C14.3264 18.7833 14.4039 18.8608 14.4039 18.956C14.4039 19.0512 14.3264 19.1287 14.2312 19.1287H13.1276ZM15.0439 11.7427V15.0602H14.4735C14.4009 15.0602 14.342 15.1191 14.342 15.1917C14.342 15.2643 14.4009 15.3232 14.4735 15.3232H15.0439V15.5862H13.6175C13.5449 15.5862 13.486 15.645 13.486 15.7176C13.486 15.7903 13.5449 15.8491 13.6175 15.8491H15.0439V16.2287C15.0439 16.4803 14.8392 16.685 14.5875 16.685H10.6231C10.3715 16.685 10.1668 16.4803 10.1668 16.2287V13.0614C10.1759 13.0634 10.1854 13.0647 10.1951 13.0647H10.4839C10.5565 13.0647 10.6154 13.0058 10.6154 12.9332C10.6154 12.8606 10.5565 12.8017 10.4839 12.8017H10.1951C10.1854 12.8017 10.1759 12.8029 10.1668 12.8049V12.4459H10.8706C10.9432 12.4459 11.0021 12.3871 11.0021 12.3144C11.0021 12.2418 10.9432 12.1829 10.8706 12.1829H10.1668V11.7427C10.1668 11.4911 10.3715 11.2864 10.6231 11.2864H10.7169H11.4624H13.7482H14.4019H14.5875C14.8392 11.2863 15.0439 11.4911 15.0439 11.7427ZM18.8427 17.3348H18.4335C18.4463 17.2769 18.4527 17.2175 18.4527 17.1569C18.4527 16.7011 18.0818 16.3303 17.626 16.3303C17.1702 16.3303 16.7994 16.7011 16.7994 17.1569C16.7994 17.2175 16.8058 17.2769 16.8185 17.3348H16.4093C16.4006 17.2756 16.3963 17.2161 16.3963 17.1569C16.3963 16.4788 16.9479 15.9271 17.6261 15.9271C18.3042 15.9271 18.8559 16.4788 18.8559 17.1569C18.8558 17.2161 18.8514 17.2756 18.8427 17.3348Z" fill="#4F5053"/>
<path d="M12.6053 12.7302C12.9028 12.7302 13.1448 12.4882 13.1448 12.1907C13.1448 11.8932 12.9028 11.6512 12.6053 11.6512C12.3078 11.6512 12.0658 11.8932 12.0658 12.1907C12.0658 12.4882 12.3078 12.7302 12.6053 12.7302ZM12.6053 11.9142C12.7578 11.9142 12.8818 12.0382 12.8818 12.1907C12.8818 12.3432 12.7578 12.4672 12.6053 12.4672C12.4528 12.4672 12.3288 12.3432 12.3288 12.1907C12.3288 12.0382 12.4528 11.9142 12.6053 11.9142Z" fill="#4F5053"/>
<path d="M12.6054 13.1042C12.2473 13.1042 11.9559 13.3956 11.9559 13.7536C11.9559 14.1117 12.2473 14.403 12.6054 14.403C12.9634 14.403 13.2548 14.1117 13.2548 13.7536C13.2548 13.3956 12.9634 13.1042 12.6054 13.1042ZM12.6054 14.1401C12.3923 14.1401 12.2189 13.9667 12.2189 13.7537C12.2189 13.5406 12.3923 13.3673 12.6054 13.3673C12.8184 13.3673 12.9918 13.5406 12.9918 13.7537C12.9918 13.9667 12.8184 14.1401 12.6054 14.1401Z" fill="#4F5053"/>
<path d="M11.8802 9.26633C11.8802 9.33897 11.9391 9.39782 12.0117 9.39782H13.1233C13.1959 9.39782 13.2548 9.33897 13.2548 9.26633C13.2548 9.19369 13.1959 9.13484 13.1233 9.13484H12.0117C11.9391 9.13484 11.8802 9.19372 11.8802 9.26633Z" fill="#4F5053"/>
</svg>
