<svg width="25" height="25" viewBox="0 0 25 25" fill="none" xmlns="http://www.w3.org/2000/svg">
<rect width="25" height="25" fill="#F1F2F6"/>
<g clip-path="url(#clip0_17_594)">
<path d="M16.8971 12.9472V8.64139H17.7208L15.8641 6.39505H15.5903L13.7336 8.64139H14.5573V12.9472H16.8971ZM15.7272 6.91923L16.7874 8.20193H16.4576V12.5078H14.9967V8.20193H14.667L15.7272 6.91923Z" fill="#4F5053"/>
<path d="M10.7488 8.60211V12.9472H13.0886V8.60211H10.7488ZM12.6491 12.5078H11.1882V9.04156H12.6491V12.5078Z" fill="#4F5053"/>
<path d="M7.52612 12.9472H9.86592V9.27859H7.52612V12.9472ZM7.96558 9.71805H9.42646V12.5078H7.96558V9.71805Z" fill="#4F5053"/>
<path d="M19.0461 5.02255H8.69316V5.46201H19.0461C19.3298 5.46201 19.5605 5.69278 19.5605 5.97646V13.9974H16.9385V14.4368H19.5605V15.9307C19.5605 16.2143 19.3298 16.4451 19.0461 16.4451H5.95391C5.67022 16.4451 5.43945 16.2143 5.43945 15.9307V14.4368H16.499V13.9974H5.43945V5.97646C5.43945 5.69278 5.67022 5.46201 5.95391 5.46201H8.25371V5.02255H5.95391C5.42791 5.02255 5 5.45046 5 5.97646V15.9307C5 16.4567 5.42791 16.8846 5.95391 16.8846H19.0461C19.5721 16.8846 20 16.4567 20 15.9307V5.97646C20 5.45046 19.5721 5.02255 19.0461 5.02255Z" fill="#4F5053"/>
<path d="M14.4852 17.5006L14.0543 17.5869L14.1909 18.2693H10.809L10.9456 17.5869L10.5147 17.5006L10.3608 18.2693H8.85547V19.9774H16.1444V18.2693H14.6391L14.4852 17.5006ZM15.705 18.7088V19.538H9.29492V18.7088H15.705Z" fill="#4F5053"/>
<path d="M14.0234 15.6607H13.584V15.2213H14.0234V15.6607ZM12.7051 15.6607H12.2656V15.2213H12.7051V15.6607ZM11.3867 15.6607H10.9473V15.2213H11.3867V15.6607Z" fill="#4F5053"/>
<path d="M15.5045 10.8932H15.944V11.3327H15.5045V10.8932Z" fill="#4F5053"/>
<path d="M11.7006 10.8932H12.14V11.3327H11.7006V10.8932Z" fill="#4F5053"/>
<path d="M8.47327 10.8932H8.91272V11.3327H8.47327V10.8932Z" fill="#4F5053"/>
</g>
<defs>
<clipPath id="clip0_17_594">
<rect width="15" height="15" fill="white" transform="translate(5 5)"/>
</clipPath>
</defs>
</svg>
