<svg width="25" height="25" viewBox="0 0 25 25" fill="none" xmlns="http://www.w3.org/2000/svg">
<rect width="25" height="25" fill="#F1F2F6"/>
<g clip-path="url(#clip0_17_463)">
<path d="M19.2528 18.5377H18.4096L18.4873 18.4451C18.8855 17.971 19.0092 17.3363 18.8185 16.7473L18.0567 14.3952C17.8655 13.8051 17.3925 13.362 16.7911 13.2099L16.4126 13.1142C16.2638 12.9054 16.03 12.7611 15.7621 12.7328L15.7623 11.796C15.7623 11.6747 15.664 11.5764 15.5428 11.5764C15.5427 11.5764 15.5427 11.5764 15.5427 11.5764C15.4215 11.5764 15.3232 11.6746 15.3231 11.7959L15.3229 12.7276H14.8844L14.3413 12.5903C14.2038 12.5555 14.1015 12.4424 14.0806 12.3021L13.9559 11.4641C14.4592 11.0679 14.8321 10.5342 14.9446 9.89645H15.1258C15.1948 9.89645 15.2613 9.88525 15.3236 9.86486L15.3234 10.7676C15.3234 10.8889 15.4217 10.9872 15.5429 10.9872H15.543C15.6642 10.9872 15.7625 10.889 15.7626 10.7677C15.7627 10.5926 15.7633 8.54105 15.7633 7.865C15.7647 6.28203 14.484 5 12.9008 5H12.0992L12.0898 5.00003C12.0881 5.00003 12.0864 5.00018 12.0846 5.00018C10.5068 5.008 9.23533 6.28813 9.23667 7.86488C9.23667 8.60231 9.23624 7.84461 9.23793 12.7328C8.96996 12.7611 8.73617 12.9053 8.58743 13.1142L8.20885 13.2099C7.60753 13.362 7.13445 13.8051 6.94332 14.3952L6.18151 16.7473C5.99076 17.3363 6.11454 17.971 6.51262 18.445L6.59038 18.5376H5.74715C5.344 18.5376 5.01599 18.8657 5.01599 19.2688C5.01599 19.672 5.34397 20 5.74715 20H19.2529C19.656 20 19.984 19.672 19.984 19.2688C19.984 18.8657 19.656 18.5377 19.2528 18.5377ZM17.6389 14.5305L18.4007 16.8826C18.5445 17.3267 18.4512 17.8052 18.151 18.1627L17.8362 18.5377H17.4316C17.4763 18.4177 17.4999 18.2897 17.4999 18.1585C17.4999 17.9074 17.2957 17.7032 17.0446 17.7032H16.5825V13.645C16.5825 13.6332 16.582 13.6216 16.5816 13.6099C16.6106 13.6251 17.3758 13.7184 17.6389 14.5305ZM17.0446 18.1423C17.0535 18.1423 17.0608 18.1496 17.0608 18.1585C17.0608 18.2961 17.017 18.4277 16.9372 18.5376H8.06275C7.983 18.4277 7.93923 18.2961 7.93923 18.1585C7.93923 18.1496 7.94647 18.1423 7.95538 18.1423H17.0446ZM15.3238 9.26601C15.32 9.37209 15.2327 9.45726 15.1258 9.45726H14.9792L14.9814 8.56719H15.1261C15.2338 8.56719 15.3215 8.65361 15.3239 8.76069L15.3238 9.26601ZM11.4882 6.05275C11.4882 5.71698 11.7564 5.44291 12.0883 5.43945C12.092 5.43945 12.0956 5.43919 12.0992 5.43919H12.9008C14.2408 5.43919 15.3253 6.5242 15.3241 7.86477L15.3241 8.12803C15.0221 8.12803 14.449 8.12803 13.5504 8.12803C12.4133 8.12803 11.4882 7.20292 11.4882 6.06582L11.4882 6.05275ZM11.5561 7.57353C12.0132 8.17669 12.7369 8.56719 13.5504 8.56719H14.5422L14.5398 9.50357C14.5398 10.2488 14.1034 10.8151 13.6115 11.1768C13.6082 11.1786 13.0218 11.6249 12.5 11.6394C12.0179 11.626 11.4138 11.1912 11.389 11.177C10.8968 10.8153 10.4601 10.2486 10.4601 9.50255C10.4551 8.40377 10.46 9.46757 10.4548 8.32373C10.4543 8.21141 10.545 8.1202 10.6574 8.1202C11.0478 8.12023 11.3872 7.89802 11.5561 7.57353ZM13.798 12.7276H11.202C11.2803 12.6242 11.3338 12.5012 11.3538 12.3668L11.4477 11.7359C11.8461 11.9631 12.2337 12.073 12.4953 12.0786C12.4969 12.0787 12.4984 12.0787 12.5 12.0787C12.5016 12.0787 12.5032 12.0787 12.5047 12.0786C12.7663 12.073 13.154 11.9632 13.5523 11.7359L13.6463 12.3668C13.6662 12.5012 13.7197 12.6242 13.798 12.7276ZM9.87423 9.89645H10.0554C10.1679 10.5335 10.5402 11.0673 11.0441 11.4641L10.9194 12.3021C10.8985 12.4424 10.7962 12.5555 10.6587 12.5902L10.1156 12.7276H9.67709L9.67636 9.86486C9.73871 9.88528 9.80515 9.89645 9.87423 9.89645ZM9.67622 9.26601L9.6761 8.76069C9.67853 8.65361 9.76625 8.56719 9.87391 8.56719H10.0167L10.0208 9.45726H9.87423C9.76724 9.45729 9.68 9.37209 9.67622 9.26601ZM11.1332 5.63929C11.0791 5.76635 11.049 5.90609 11.049 6.05272C11.052 6.08281 11.0283 6.49968 11.2309 7.0006V7.10753C11.2309 7.42376 10.9737 7.68105 10.6574 7.68105C10.3687 7.68105 10.1279 7.87021 10.046 8.128H9.87391C9.8048 8.128 9.7383 8.13919 9.67595 8.15964L9.67586 7.86462C9.67498 6.85874 10.2826 6.00913 11.1332 5.63929ZM6.59934 16.8826L7.36115 14.5305C7.62406 13.7188 8.38882 13.6254 8.41844 13.6099C8.418 13.6216 8.41756 13.6332 8.41756 13.645V14.9464C8.41756 15.0677 8.51588 15.166 8.63714 15.166C8.75843 15.166 8.85672 15.0677 8.85672 14.9464V13.645C8.85672 13.3813 9.07124 13.1668 9.33491 13.1668H15.6651C15.9288 13.1668 16.1433 13.3813 16.1433 13.645V17.7032H8.85669V15.973C8.85669 15.8517 8.75837 15.7534 8.63711 15.7534C8.51583 15.7534 8.41753 15.8517 8.41753 15.973V17.7032H7.95541C7.70433 17.7032 7.50007 17.9074 7.50007 18.1585C7.50007 18.2897 7.52372 18.4177 7.56836 18.5377H7.16383L6.84898 18.1626C6.54883 17.8052 6.45549 17.3267 6.59934 16.8826ZM19.2528 19.5608H5.74715C5.58614 19.5608 5.45518 19.4298 5.45518 19.2688C5.45518 19.1078 5.58617 18.9769 5.74715 18.9769H19.2529C19.4139 18.9769 19.5448 19.1079 19.5448 19.2688C19.5448 19.4298 19.4139 19.5608 19.2528 19.5608Z" fill="#4F5053"/>
<path d="M12.5 16.4647C13.0544 16.4647 13.5055 16.0136 13.5055 15.4592C13.5055 14.9048 13.0544 14.4537 12.5 14.4537C11.9456 14.4537 11.4945 14.9048 11.4945 15.4592C11.4945 16.0136 11.9456 16.4647 12.5 16.4647ZM12.5 14.8929C12.8123 14.8929 13.0663 15.1469 13.0663 15.4592C13.0663 15.7715 12.8123 16.0256 12.5 16.0256C12.1877 16.0256 11.9337 15.7715 11.9337 15.4592C11.9337 15.1469 12.1877 14.8929 12.5 14.8929Z" fill="#4F5053"/>
</g>
<defs>
<clipPath id="clip0_17_463">
<rect width="15" height="15" fill="white" transform="translate(5 5)"/>
</clipPath>
</defs>
</svg>
