<svg width="25" height="25" viewBox="0 0 25 25" fill="none" xmlns="http://www.w3.org/2000/svg">
<rect width="25" height="25" fill="#F1F2F6"/>
<g clip-path="url(#clip0_17_568)">
<path d="M5.35786 19.8697C5.36209 19.8697 5.36621 19.8696 5.37045 19.8695C8.02835 19.7747 10.62 19.1941 13.0733 18.1438C13.1849 18.0961 13.2366 17.9669 13.1889 17.8553C13.141 17.7437 13.0118 17.6921 12.9004 17.7398C10.9656 18.568 8.9432 19.0981 6.86986 19.3217C11.0827 18.4086 14.8637 16.2873 17.6685 13.0507C17.7771 12.9253 17.772 12.7407 17.6567 12.6213L17.0678 12.012H19.5606V14.6316L19.0082 14.119C18.8842 14.004 18.6919 14.006 18.5706 14.1238C18.2647 14.4208 16.5989 15.97 13.8331 17.314C13.7239 17.367 13.6784 17.4985 13.7314 17.6076C13.7845 17.7167 13.9159 17.7623 14.0252 17.7092C16.6589 16.4295 18.3241 14.9601 18.7931 14.519L19.4658 15.143C19.669 15.3316 20 15.1866 20 14.9099V11.8906C20 11.7153 19.8574 11.5726 19.6819 11.5726H16.7813C16.5009 11.5726 16.3582 11.9104 16.5527 12.1116L17.2632 12.8468C16.8588 13.308 16.443 13.7368 16.0189 14.1358V10.7912C16.0189 10.6698 15.9206 10.5714 15.7992 10.5714C15.6777 10.5714 15.5794 10.6698 15.5794 10.7912V14.5329C14.9051 15.1255 14.1804 15.6732 13.4197 16.1651C13.4197 16.0897 13.4197 5.80871 13.4197 5.67356C13.4197 5.6414 13.446 5.61519 13.4782 5.61519H15.521C15.5532 5.61519 15.5794 5.6414 15.5794 5.67356V9.76576C15.5794 9.88707 15.6777 9.98549 15.7992 9.98549C15.9206 9.98549 16.0189 9.88707 16.0189 9.76576V5.67367C16.0189 5.39901 15.7955 5.17574 15.521 5.17574H13.4782C13.2036 5.17574 12.9802 5.39901 12.9802 5.67367V7.93641H10.879C10.6044 7.93641 10.3812 8.1598 10.3812 8.43435V10.6972H8.2799C8.00535 10.6972 7.78196 10.9206 7.78196 11.1951V13.458H5.68081C5.40627 13.458 5.18288 13.6814 5.18288 13.9559V19.2C5.07324 19.262 5 19.38 5 19.5117C5 19.7081 5.15965 19.8697 5.35786 19.8697ZM10.8207 8.43435C10.8207 8.40219 10.8469 8.37598 10.8791 8.37598H12.9804V16.4407C12.2932 16.8583 11.5685 17.2375 10.8207 17.5712C10.8207 17.3897 10.8207 8.64881 10.8207 8.43435ZM8.22153 11.1951C8.22153 11.1629 8.24774 11.1367 8.28001 11.1367H10.3813V17.761C9.68329 18.0524 8.95853 18.3083 8.22153 18.5236C8.22153 18.3174 8.22153 11.4003 8.22153 11.1951ZM5.62233 13.9559C5.62233 13.9237 5.64854 13.8974 5.68081 13.8974H7.78208V18.6469C7.07208 18.8378 6.34755 18.9928 5.62233 19.1092V13.9559Z" fill="#4F5053"/>
</g>
<defs>
<clipPath id="clip0_17_568">
<rect width="15" height="15" fill="white" transform="translate(5 5)"/>
</clipPath>
</defs>
</svg>
