<svg width="25" height="25" viewBox="0 0 25 25" fill="none" xmlns="http://www.w3.org/2000/svg">
<rect width="25" height="25" fill="#F1F2F6"/>
<path d="M7.34535 16.2578H7.66672H9.72773H9.99964C10.1635 16.2578 10.2963 16.125 10.2963 15.9612C10.2963 15.8057 10.1766 15.6784 10.0244 15.6658V12.9979C10.0244 12.834 9.89155 12.7012 9.72773 12.7012H7.66672C7.5029 12.7012 7.37008 12.834 7.37008 12.9979V15.6645H7.34535C7.18153 15.6645 7.04871 15.7974 7.04871 15.9612C7.04871 16.125 7.18153 16.2578 7.34535 16.2578ZM9.43109 13.2945V14.1829H7.96336V13.2945H9.43109ZM7.96336 14.7761H9.43109V15.6645H7.96336V14.7761Z" fill="#4F5053"/>
<path d="M12.329 15.7514C12.2738 15.6962 12.1974 15.6646 12.1191 15.6646C12.0413 15.6646 11.9649 15.6962 11.9096 15.7514C11.8544 15.8067 11.8225 15.883 11.8225 15.9613C11.8225 16.0391 11.8544 16.1159 11.9096 16.1708C11.9645 16.226 12.0413 16.2579 12.1191 16.2579C12.1974 16.2579 12.2738 16.226 12.329 16.1708C12.3843 16.1155 12.4158 16.0391 12.4158 15.9613C12.4158 15.883 12.3843 15.8067 12.329 15.7514Z" fill="#4F5053"/>
<path d="M15.9649 16.2578H16.2862H18.3472H18.6191C18.783 16.2578 18.9158 16.125 18.9158 15.9612C18.9158 15.8057 18.7961 15.6784 18.6439 15.6658V12.9979C18.6439 12.834 18.5111 12.7012 18.3472 12.7012H16.2862C16.1224 12.7012 15.9896 12.834 15.9896 12.9979V15.6645H15.9649C15.801 15.6645 15.6682 15.7974 15.6682 15.9612C15.6682 16.125 15.801 16.2578 15.9649 16.2578ZM18.0506 13.2945V14.1829H16.5829V13.2945H18.0506ZM16.5829 14.7761H18.0506V15.6645H16.5829V14.7761Z" fill="#4F5053"/>
<path d="M20.7034 18.6525H20.4283V12.3049L20.5641 12.373C20.656 12.4192 20.7654 12.4144 20.8529 12.3604C20.9405 12.3064 20.9938 12.2109 20.9938 12.1079V10.9164C20.9938 10.8042 20.9305 10.7016 20.8303 10.6513L19.5261 9.99627V7.96733C19.5261 7.80351 19.3933 7.67069 19.2294 7.67069H17.4651C17.3012 7.67069 17.1684 7.80351 17.1684 7.96733V8.81227L13.1331 6.78574C13.0494 6.74369 12.9507 6.74365 12.867 6.7857L5.1636 10.6513C5.06333 10.7016 5 10.8042 5 10.9164V12.1079C5 12.2108 5.05332 12.3063 5.14087 12.3604C5.18848 12.3897 5.24247 12.4046 5.29664 12.4046C5.3421 12.4046 5.38771 12.3941 5.42965 12.3731L5.57162 12.3018V18.6525H5.29664C5.13282 18.6525 5 18.7854 5 18.9492C5 19.113 5.13282 19.2458 5.29664 19.2458H20.7034C20.8672 19.2458 21 19.113 21 18.9492C21 18.7854 20.8672 18.6525 20.7034 18.6525ZM11.523 13.2945H14.4709V18.6525H11.523V13.2945ZM15.0641 17.4382H19.8351V18.6525H15.0641V17.4382ZM17.7617 9.09211V8.26397H18.9328V9.69837L17.7608 9.10976C17.7611 9.1039 17.7617 9.09808 17.7617 9.09211ZM5.59328 11.0994L13 7.38272L20.4005 11.0994V11.627L13.1331 7.97726C13.0494 7.93521 12.9507 7.93518 12.867 7.97723L5.59328 11.6272V11.0994ZM13 8.57425L19.8382 12.0085C19.8364 12.022 19.8351 12.0356 19.8351 12.0496V16.8449H15.0641V12.9979C15.0641 12.834 14.9313 12.7012 14.7675 12.7012H11.2264C11.0625 12.7012 10.9297 12.834 10.9297 12.9979V16.8449H6.16494V12.0496C6.16494 12.0347 6.16349 12.0202 6.16138 12.0059L13 8.57425ZM6.16494 17.4382H10.9297V18.6525H6.16494V17.4382Z" fill="#4F5053"/>
</svg>
