<svg width="25" height="25" viewBox="0 0 25 25" fill="none" xmlns="http://www.w3.org/2000/svg">
<rect width="25" height="25" fill="#F1F2F6"/>
<path d="M19.9996 11.1933C19.9936 11.0563 19.9172 10.8021 19.4729 10.6404L7.62781 6.33342C7.02063 6.11249 6.34681 6.42662 6.12579 7.03382L5.80514 7.91475C5.80514 7.91475 5.80511 7.91484 5.80508 7.9149L5.0837 9.89692C4.86271 10.5042 5.17689 11.1779 5.78419 11.399L9.23642 12.654C9.17082 13.053 9.28024 13.4473 9.51843 13.7489L8.78302 15.7693C8.74918 15.8623 8.65988 15.9248 8.56083 15.9248H6.40625V15.2217C6.40625 14.834 6.09084 14.5185 5.70312 14.5185H5.23438C5.10494 14.5185 5 14.6235 5 14.7529V18.5029C5 18.6323 5.10494 18.7373 5.23438 18.7373H5.70312C6.09084 18.7373 6.40625 18.4218 6.40625 18.0342V17.331H8.56083C9.24896 17.331 9.86929 16.8966 10.1045 16.2501L10.8244 14.2721C11.2364 14.2143 11.6108 13.9738 11.8331 13.5981L15.8673 15.0647C15.9992 15.1127 16.1341 15.1355 16.267 15.1355C16.6698 15.1354 17.0526 14.926 17.267 14.5765L17.7299 14.745C17.7822 14.764 17.8364 14.7735 17.8905 14.7735C17.9579 14.7735 18.0252 14.7587 18.0881 14.7293C18.2016 14.6765 18.2876 14.5826 18.3303 14.465L18.9719 12.7025C19.0499 12.4881 18.9608 12.2532 18.7718 12.1403L19.5231 11.79C19.9516 11.5902 20.0055 11.3304 19.9996 11.1933ZM5.9375 18.0342C5.9375 18.1634 5.83235 18.2685 5.70312 18.2685H5.46875V14.9873H5.70312C5.83235 14.9873 5.9375 15.0924 5.9375 15.2217V18.0342ZM9.66397 16.0898C9.4959 16.5518 9.05258 16.8623 8.56083 16.8623H6.40625V16.3935H8.56083C8.8562 16.3935 9.12248 16.2071 9.2235 15.9296L9.8963 14.0812C9.9735 14.1276 10.0562 14.1674 10.144 14.1993C10.2064 14.222 10.2693 14.24 10.3323 14.2536L9.66397 16.0898ZM10.6573 13.8159C10.6519 13.8159 10.6465 13.8159 10.6411 13.8162C10.5295 13.8177 10.4156 13.7994 10.3043 13.7589C10.1741 13.7114 10.0604 13.6385 9.96737 13.5475C9.95885 13.5372 9.94938 13.5276 9.93904 13.5187C9.76449 13.3328 9.67104 13.0804 9.68873 12.8185L11.3809 13.4336C11.2096 13.6688 10.9416 13.8072 10.6573 13.8159ZM18.5314 12.5422L17.8903 14.3045L17.4495 14.1441L18.0576 12.4734L18.1821 12.4153L18.5314 12.5422ZM19.3251 11.3652L18.0721 11.9494C18.072 11.9495 18.0719 11.9495 18.0718 11.9496L17.7717 12.0895C17.7716 12.0896 17.7715 12.0896 17.7714 12.0896L17.4196 12.2537C17.0067 12.4462 16.2963 12.4772 15.8681 12.3214L9.08853 9.85804C8.96691 9.81389 8.83241 9.87664 8.7882 9.99829C8.74399 10.12 8.80678 10.2544 8.92845 10.2986L15.7079 12.7619C15.9438 12.8478 16.2346 12.8896 16.5313 12.8896C16.8557 12.8896 17.1869 12.8393 17.461 12.742L16.929 14.204C16.7964 14.5683 16.3921 14.7568 16.0277 14.6242L5.94441 10.9585C5.58008 10.8259 5.39158 10.4216 5.52418 10.0573L5.9252 8.95546C6.05894 9.16107 6.25783 9.32663 6.50557 9.4168L6.72588 9.49696C6.8474 9.54125 6.98199 9.4785 7.02626 9.35686C7.07053 9.23525 7.0078 9.10075 6.88616 9.05648L6.66588 8.97632C6.3016 8.84372 6.11308 8.43955 6.24559 8.07524L6.3258 7.85484L6.32583 7.85475L6.56627 7.19414C6.6989 6.8298 7.10316 6.64122 7.46756 6.7739L19.3127 11.081C19.4631 11.1357 19.5188 11.1928 19.5301 11.2138C19.5207 11.2358 19.4702 11.2975 19.3251 11.3652Z" fill="#4F5053"/>
<path d="M8.20754 9.53744L7.767 9.37707C7.64539 9.33275 7.51089 9.39553 7.46659 9.51714C7.42232 9.63875 7.48502 9.77325 7.60666 9.81755L8.0472 9.97792C8.07365 9.98756 8.10072 9.9921 8.12735 9.9921C8.2231 9.9921 8.31295 9.93298 8.34761 9.83782C8.3919 9.71624 8.32918 9.58174 8.20754 9.53744Z" fill="#4F5053"/>
</svg>
