<svg width="25" height="25" viewBox="0 0 25 25" fill="none" xmlns="http://www.w3.org/2000/svg">
<rect width="25" height="25" fill="#F1F2F6"/>
<g clip-path="url(#clip0_17_509)">
<path d="M18.2725 15.5856C18.1902 15.5515 18.0955 15.5704 18.0325 15.6333L15.6265 18.0394C15.5635 18.1024 15.5447 18.197 15.5788 18.2793C15.6128 18.3616 15.6932 18.4152 15.7822 18.4152H18.1882C18.3099 18.4152 18.4084 18.3167 18.4084 18.195V15.789C18.4084 15.7 18.3547 15.6197 18.2725 15.5856ZM16.3136 17.9749L17.968 16.3205V17.9749H16.3136Z" fill="#4F5053"/>
<path d="M19.8641 12.0567C19.7819 12.0226 19.6872 12.0414 19.6242 12.1044L18.9648 12.7637V8.2804C18.9648 8.15879 18.8662 8.06023 18.7446 8.06023H17.053L17.6671 7.44617C17.6671 7.44608 17.6672 7.44597 17.6673 7.44588L18.259 6.8542C18.3858 6.72743 18.4556 6.5588 18.4556 6.3795C18.4556 6.2002 18.3858 6.03163 18.259 5.9048L17.5748 5.2206C17.448 5.09383 17.2794 5.02402 17.1001 5.02402C16.9208 5.02402 16.7522 5.09383 16.6254 5.2206L16.0334 5.81257L15.3181 6.52789L13.7858 8.0602H6.95176V5.88212C6.95176 5.76051 6.85318 5.66196 6.7316 5.66196C5.77681 5.66202 5 6.43877 5 7.39361V16.7448C5 16.761 5.00188 16.7769 5.00521 16.7921C5.03563 17.1972 5.21091 17.5737 5.50385 17.8594C5.81697 18.1648 6.23032 18.333 6.66779 18.333H13.3955L12.1284 19.6001C12.0655 19.6631 12.0466 19.7577 12.0807 19.84C12.1148 19.9223 12.1951 19.9759 12.2841 19.9759H19.7799C19.9014 19.9759 20 19.8774 20 19.7558V12.2601C20 12.171 19.9464 12.0907 19.8641 12.0567ZM16.9368 5.532C17.0268 5.44194 17.1735 5.44194 17.2635 5.532L17.9477 6.21623C18.0378 6.30626 18.0378 6.45283 17.9477 6.54289L17.5114 6.97918L16.5005 5.96829L16.9368 5.532ZM16.1891 6.27965L17.2 7.29052L16.7961 7.69449L15.7852 6.68363L16.1891 6.27965ZM19.5598 14.734H19.1536C19.0319 14.734 18.9334 14.8325 18.9334 14.9541C18.9334 15.0757 19.0319 15.1743 19.1536 15.1743H19.5598V15.8377H19.1536C19.0319 15.8377 18.9334 15.9363 18.9334 16.0579C18.9334 16.1795 19.0319 16.2781 19.1536 16.2781H19.5598V16.9415H19.1536C19.0319 16.9415 18.9334 17.0401 18.9334 17.1617C18.9334 17.2833 19.0319 17.3818 19.1536 17.3818H19.5598V18.0453H19.1536C19.0319 18.0453 18.9334 18.1439 18.9334 18.2655C18.9334 18.3871 19.0319 18.4856 19.1536 18.4856H19.5598V19.5357H12.8156L15.0395 17.3119C15.1255 17.2258 15.1255 17.0865 15.0395 17.0005C15.0296 16.9906 15.019 16.9821 15.0079 16.9744C14.9222 16.9157 14.8042 16.9244 14.7281 17.0005L13.8358 17.8928H6.66782C6.00008 17.8928 5.46254 17.3714 5.44139 16.7049C5.44265 16.6631 5.4459 16.6216 5.45111 16.5806C5.45114 16.5803 5.45117 16.5801 5.4512 16.5799C5.45366 16.5604 5.45662 16.541 5.45999 16.5217C5.46037 16.5195 5.46078 16.5173 5.46116 16.5151C5.46424 16.4979 5.4677 16.4808 5.47148 16.4638C5.47253 16.459 5.47364 16.4543 5.47476 16.4496C5.4781 16.4351 5.4817 16.4208 5.48557 16.4065C5.48768 16.3988 5.48987 16.3912 5.49213 16.3835C5.49535 16.3723 5.49869 16.3611 5.50224 16.3501C5.50578 16.339 5.50956 16.3281 5.5134 16.3172C5.51607 16.3095 5.5187 16.3019 5.52157 16.2943C5.52693 16.2799 5.53262 16.2656 5.53848 16.2515C5.54015 16.2474 5.54179 16.2432 5.54352 16.2392C5.55105 16.2216 5.55887 16.2042 5.56713 16.1871C5.56748 16.1863 5.5678 16.1856 5.56816 16.1849C5.74036 15.8285 6.07156 15.5628 6.46904 15.4804C6.47015 15.4801 6.47126 15.4799 6.47238 15.4796C6.4906 15.4759 6.509 15.4727 6.52751 15.4698C6.53059 15.4693 6.53367 15.4686 6.5368 15.4682C6.55353 15.4656 6.57043 15.4636 6.58734 15.4617C6.59208 15.4612 6.5968 15.4605 6.60158 15.46C6.61789 15.4584 6.63436 15.4573 6.65082 15.4562C6.65604 15.4559 6.66125 15.4554 6.66647 15.4551C6.68803 15.454 6.70977 15.4535 6.7316 15.4535C6.85318 15.4535 6.95176 15.3549 6.95176 15.2333V13.6369C6.95176 13.5153 6.85318 13.4168 6.7316 13.4168C6.61001 13.4168 6.51143 13.5153 6.51143 13.6369V15.027C6.13965 15.074 5.79456 15.2398 5.52245 15.5056C5.49383 15.5335 5.4667 15.5626 5.44027 15.5921V7.39361C5.44027 6.75667 5.90393 6.22589 6.5114 6.12107V8.2804V12.7563V12.7563C6.5114 12.8779 6.60998 12.9765 6.73157 12.9765C6.85315 12.9765 6.95173 12.8779 6.95173 12.7563V12.7563V8.50057H13.3455L12.1284 9.71768C12.0424 9.80369 12.0424 9.94306 12.1284 10.029C12.2144 10.115 12.3538 10.115 12.4397 10.029L14.0327 8.43608C14.0327 8.43603 14.0328 8.43597 14.0328 8.43594L15.4738 6.99497L16.4846 8.00586L16.366 8.12445C16.366 8.12454 16.3658 8.12463 16.3657 8.12472L11.9264 12.5641L10.9156 11.5532L11.7906 10.6782C11.8766 10.5922 11.8766 10.4528 11.7906 10.3668C11.7046 10.2809 11.5652 10.2809 11.4793 10.3668L10.4485 11.3975C10.443 11.403 10.4379 11.4089 10.433 11.4149C10.4314 11.4168 10.43 11.419 10.4285 11.4211C10.4254 11.4252 10.4223 11.4294 10.4195 11.4337C10.4179 11.4362 10.4164 11.4388 10.4149 11.4414C10.4124 11.4455 10.4101 11.4497 10.408 11.4539C10.4065 11.4567 10.4053 11.4594 10.404 11.4623C10.402 11.4666 10.4002 11.471 10.3985 11.4754C10.398 11.477 10.3972 11.4784 10.3966 11.48L9.96771 12.6951L9.67526 13.5236C9.6714 13.5346 9.66861 13.5458 9.66653 13.557H8.93434C8.81276 13.557 8.71418 13.6556 8.71418 13.7772C8.71418 13.8988 8.81276 13.9974 8.93434 13.9974H15.0314C15.1531 13.9974 15.2516 13.8988 15.2516 13.7772C15.2516 13.6556 15.1531 13.557 15.0314 13.557H10.657L11.9997 13.0831C12.0008 13.0827 12.0019 13.0821 12.003 13.0817C12.0082 13.0798 12.0133 13.0776 12.0184 13.0753C12.0204 13.0743 12.0224 13.0735 12.0244 13.0725C12.0297 13.0699 12.0349 13.067 12.04 13.0639C12.0416 13.0629 12.0433 13.062 12.0449 13.0609C12.0502 13.0575 12.0554 13.0538 12.0604 13.0499C12.0617 13.0489 12.063 13.0481 12.0643 13.0471C12.0704 13.0421 12.0764 13.0368 12.0821 13.0312L16.6127 8.5006H18.5244V13.2041L15.3751 16.3534C15.2891 16.4394 15.2891 16.5788 15.3751 16.6648C15.3805 16.6702 15.3861 16.6752 15.3919 16.6799C15.4322 16.7128 15.4815 16.7293 15.5308 16.7293C15.5801 16.7293 15.6294 16.7128 15.6698 16.6799C15.6755 16.6752 15.6811 16.6702 15.6865 16.6648C15.6866 16.6647 15.6865 16.6648 15.6866 16.6647L19.5598 12.7915V14.734ZM11.5238 12.7841L10.8931 13.0067L10.4729 12.5865L10.6956 11.9559L11.5238 12.7841Z" fill="#4F5053"/>
</g>
<defs>
<clipPath id="clip0_17_509">
<rect width="15" height="15" fill="white" transform="translate(5 5)"/>
</clipPath>
</defs>
</svg>
