<svg width="25" height="25" viewBox="0 0 25 25" fill="none" xmlns="http://www.w3.org/2000/svg">
<rect width="25" height="25" fill="#F1F2F6"/>
<path d="M9.61011 8.99141H10.0499V9.43116H9.61011V8.99141Z" fill="#4F5053"/>
<path d="M10.4896 8.99141H10.9294V9.43116H10.4896V8.99141Z" fill="#4F5053"/>
<path d="M17.3844 8.59508L17.8085 8.47874C17.7678 8.33047 17.7192 8.18258 17.6642 8.03917L17.2537 8.19687C17.3036 8.32678 17.3475 8.46072 17.3844 8.59508Z" fill="#4F5053"/>
<path d="M12.2194 5.91591H12.6591V6.35565H12.2194V5.91591Z" fill="#4F5053"/>
<path d="M11.7251 12.9831L11.3159 12.8222C11.0389 13.5491 9.9892 13.5632 9.68864 12.8478L9.28467 13.0216C9.73575 14.095 11.31 14.0729 11.7251 12.9831Z" fill="#4F5053"/>
<path d="M14.4306 13.38C14.0787 13.38 13.7613 13.1711 13.6222 12.8477L13.2183 13.0216C13.6614 14.0777 15.1999 14.0774 15.6429 13.0217L15.239 12.8478C15.0998 13.1711 14.7825 13.38 14.4306 13.38Z" fill="#4F5053"/>
<path d="M15.8425 12.0346L16.1438 11.7143C15.7821 11.3739 15.3093 11.1865 14.8126 11.1865H13.1514V11.6262H14.8126C15.1969 11.6262 15.5626 11.7712 15.8425 12.0346Z" fill="#4F5053"/>
<path d="M11.8191 11.6262V11.1865H10.1383C9.64165 11.1865 9.16889 11.3739 8.80713 11.7143L9.10848 12.0346C9.38835 11.7712 9.75409 11.6262 10.1383 11.6262H11.8191Z" fill="#4F5053"/>
<path d="M11.2829 15.8328L11.0304 16.1929C11.8159 16.8322 13.136 16.8322 13.9215 16.1929L13.669 15.8328C13.0467 16.3173 11.8585 16.319 11.2829 15.8328Z" fill="#4F5053"/>
<path d="M16.568 15.9891C16.7847 15.4685 16.9316 14.9103 17.013 14.2848C17.6075 13.9155 17.9736 13.2567 17.9736 12.5552V9.74533C17.9656 9.41187 17.9475 9.11835 17.9102 8.94022L17.4765 9.01309C17.5727 9.4267 17.5221 11.1476 17.5339 11.6299H17.0756C17.0691 8.64857 15.1042 6.54345 12.0066 6.81113C11.4793 6.51477 11.4738 5.76362 11.9985 5.46351H13.2748C14.8947 5.46351 16.3539 6.36301 17.083 7.81101L17.4758 7.61325C16.7036 6.04854 15.0237 5.00765 13.2748 5.02382C11.568 4.99883 10.0727 4.91935 8.68158 6.10203L8.07886 5L7.39858 6.24383L6.15479 6.9241L7.44183 7.65412C7.14698 8.14666 7.01901 8.88529 6.9765 9.67057V12.5553C6.97653 13.2568 7.34433 13.9155 7.93891 14.2848C8.09248 15.8583 8.98583 17.492 10.2731 18.4675V20H10.7129V18.7795C11.2576 19.1311 11.848 19.3841 12.4735 19.5348C13.0959 19.385 13.6932 19.1263 14.2402 18.7735V20H14.68V18.4611C14.9488 18.2516 15.2015 18.0184 15.434 17.7639L15.9937 18.7871L16.674 17.5433L17.9178 16.863L16.674 16.1828L16.568 15.9891ZM17.5356 12.0697C17.5535 12.7006 17.5578 13.2055 17.088 13.6809V12.0697H17.5356ZM7.07122 6.92407L7.72261 6.56782L8.07886 5.91644L8.43511 6.56782L9.08649 6.92407L8.43511 7.28032L8.07886 7.93171L7.72261 7.28032L7.07122 6.92407ZM7.41628 9.72433C7.41628 9.18418 7.51466 8.66346 7.7084 8.1708L8.07889 8.8482L8.75916 7.60438L10.003 6.9241L9.02535 6.38943C9.69546 5.85603 10.5086 5.53821 11.3624 5.47531C11.0715 5.89024 11.1038 6.50492 11.4381 6.88584C9.09391 7.27265 7.86754 9.35431 7.85348 11.6299H7.41628V9.72433ZM7.41628 12.5552V12.0697H7.85184V13.6825C7.55761 13.3866 7.41628 12.9809 7.41628 12.5552ZM12.4735 19.0812C8.88581 18.1098 8.08732 14.9484 8.29217 11.71L8.91493 11.0872C9.9151 10.1022 10.7438 10.9195 11.8738 9.92258L11.5841 9.5917C10.4102 10.5692 9.75373 9.48248 8.32923 11.051C8.43353 10.1254 8.7427 9.29548 9.2159 8.67055C10.6282 6.65574 14.7345 6.77809 15.9322 8.96448C16.1993 9.39623 16.3673 9.84374 16.4731 10.3049C15.591 9.0771 14.2226 8.26238 12.6933 8.09029V7.65746H12.2536C12.2724 8.26511 12.2474 8.79649 11.8584 9.297L12.2092 9.56217C12.442 9.2542 12.5937 8.90255 12.658 8.52878C14.4012 8.72917 15.9165 9.84236 16.627 11.4558C16.6151 12.683 16.7353 14.3339 16.2903 15.4813L15.9937 14.9389L15.3134 16.1828L14.0696 16.863L15.131 17.4435C14.4092 18.2424 13.4762 18.8188 12.4735 19.0812ZM16.35 17.2193L15.9937 17.8707L15.6375 17.2193L14.9861 16.8631L15.6375 16.5068L15.9937 15.8554L16.35 16.5068L17.0013 16.8631L16.35 17.2193Z" fill="#4F5053"/>
<path d="M18.6325 14.6936H18.1927V15.1333H17.7529V15.5731H18.1927V16.0129H18.6325V15.5731H19.0722V15.1333H18.6325V14.6936Z" fill="#4F5053"/>
<path d="M5.87949 8.11804H5.43975V8.55779H5V8.99756H5.43975V9.43731H5.87949V8.99756H6.31927V8.55779H5.87949V8.11804Z" fill="#4F5053"/>
<path d="M19.5336 13.8141H19.9733V14.2538H19.5336V13.8141Z" fill="#4F5053"/>
<path d="M19.5336 16.4517H19.9733V16.8914H19.5336V16.4517Z" fill="#4F5053"/>
</svg>
