<svg width="25" height="25" viewBox="0 0 25 25" fill="none" xmlns="http://www.w3.org/2000/svg">
<rect width="25" height="25" fill="#F1F2F6"/>
<g clip-path="url(#clip0_17_544)">
<path d="M12.4963 5C10.1199 5 8.18652 6.93336 8.18652 9.30975C8.18652 10.2976 8.52839 11.2607 9.14989 12.0257C9.15452 12.0329 9.1595 12.0399 9.16483 12.0467L12.2653 16.0189C12.3208 16.09 12.406 16.1316 12.4963 16.1316C12.5865 16.1316 12.6717 16.09 12.7272 16.0188L15.8426 12.0258C15.8436 12.0244 15.8447 12.023 15.8458 12.0216C16.465 11.2575 16.806 10.2949 16.806 9.30975C16.806 6.93336 14.8727 5 12.4963 5ZM15.3843 11.6605C15.3806 11.665 15.3771 11.6696 15.3737 11.6744L12.4962 15.3625L9.64779 11.7133C9.6407 11.7017 9.63273 11.6906 9.62395 11.6799C9.0748 11.0152 8.7724 10.1735 8.7724 9.30975C8.7724 7.25642 10.4429 5.58588 12.4963 5.58588C14.5496 5.58588 16.2201 7.25642 16.2202 9.30975C16.2202 10.1643 15.9233 10.9991 15.3843 11.6605Z" fill="#4F5053"/>
<path d="M15.0248 8.62575C14.979 8.47056 14.816 8.38191 14.6609 8.42767C14.5057 8.47346 14.417 8.63635 14.4628 8.79154C14.6758 9.51344 14.4778 10.2922 13.9462 10.8238C13.5589 11.2111 13.0439 11.4244 12.4962 11.4244C11.9485 11.4244 11.4336 11.2111 11.0463 10.8238C10.659 10.4365 10.4457 9.92158 10.4457 9.37384C10.4457 8.82611 10.659 8.31116 11.0463 7.92388C11.5785 7.39168 12.3579 7.19389 13.0803 7.40776C13.2355 7.45373 13.3985 7.36516 13.4444 7.21004C13.4903 7.05491 13.4017 6.8919 13.2466 6.84599C12.318 6.57113 11.3162 6.82543 10.632 7.5096C10.1341 8.00756 9.85986 8.66964 9.85986 9.37384C9.85986 10.0781 10.1341 10.7401 10.632 11.2381C11.13 11.736 11.7921 12.0103 12.4963 12.0103C13.2005 12.0103 13.8625 11.736 14.3605 11.2381C15.044 10.5547 15.2985 9.55364 15.0248 8.62575Z" fill="#4F5053"/>
<path d="M14.3658 7.51475L14.3606 7.50954C14.2461 7.39514 14.0607 7.39514 13.9463 7.50954C13.8319 7.62397 13.8319 7.80945 13.9463 7.92383L13.9515 7.92904C14.0086 7.98626 14.0836 8.01485 14.1586 8.01485C14.2336 8.01485 14.3085 7.98626 14.3658 7.92904C14.4801 7.81464 14.4801 7.62916 14.3658 7.51475Z" fill="#4F5053"/>
<path d="M17.0002 13.9445C16.8465 13.894 16.6809 13.9775 16.6303 14.1312C16.5798 14.2848 16.6633 14.4504 16.817 14.501C18.4427 15.036 19.4132 15.8375 19.4132 16.6451C19.4132 17.3279 18.7089 18.0189 17.4809 18.5406C16.1553 19.1039 14.3863 19.4142 12.4999 19.4142C10.6135 19.4142 8.84457 19.1039 7.51889 18.5406C6.29091 18.0189 5.58661 17.328 5.58661 16.6451C5.58661 16.0732 6.07985 15.4923 6.97552 15.0093C7.92184 14.499 9.26202 14.1294 10.7492 13.9687C10.91 13.9513 11.0263 13.8068 11.0089 13.6459C10.9915 13.4851 10.847 13.3687 10.6862 13.3862C9.12544 13.5549 7.70888 13.9482 6.6974 14.4937C5.58743 15.0922 5.00073 15.8362 5.00073 16.6451C5.00073 17.5879 5.81366 18.4526 7.28976 19.0798C8.68631 19.6732 10.5366 20 12.4999 20C14.4633 20 16.3136 19.6732 17.7101 19.0798C19.1862 18.4526 19.9991 17.588 19.9991 16.6451C19.9991 15.556 18.9061 14.5717 17.0002 13.9445Z" fill="#4F5053"/>
<path d="M15.6598 13.5933L15.6496 13.5912C15.491 13.5593 15.3365 13.6619 15.3045 13.8205C15.2726 13.9791 15.3752 14.1336 15.5338 14.1656L15.544 14.1676C15.5636 14.1715 15.583 14.1734 15.6022 14.1734C15.7388 14.1734 15.861 14.0774 15.8891 13.9384C15.921 13.7798 15.8184 13.6253 15.6598 13.5933Z" fill="#4F5053"/>
<path d="M10.2852 14.8737C10.2535 14.715 10.0992 14.6122 9.94048 14.6438C9.93389 14.6452 9.92688 14.6468 9.92038 14.6486C9.76432 14.6912 9.6723 14.8522 9.71486 15.0083C9.7504 15.1386 9.86847 15.2242 9.99731 15.2242C10.0204 15.2242 10.0437 15.2215 10.067 15.2158C10.2191 15.179 10.3162 15.0284 10.2852 14.8737Z" fill="#4F5053"/>
<path d="M13.4774 14.3969C13.3159 14.3844 13.1751 14.5048 13.1625 14.666C13.1499 14.8273 13.2704 14.9683 13.4317 14.9809C15.3443 15.1306 16.363 15.6901 16.363 16.0363C16.363 16.2034 16.0967 16.4872 15.3461 16.7371C14.5902 16.9889 13.5794 17.1275 12.5 17.1275C11.4205 17.1275 10.4097 16.9889 9.6538 16.7371C8.90324 16.4872 8.63693 16.2034 8.63693 16.0363C8.63693 15.8837 8.84397 15.6912 9.19076 15.5215C9.33607 15.4504 9.39622 15.275 9.32512 15.1297C9.25401 14.9844 9.07858 14.9242 8.93324 14.9953C8.2041 15.3521 8.05103 15.7584 8.05103 16.0364C8.05103 17.1374 10.2891 17.7135 12.4999 17.7135C14.7108 17.7135 16.9488 17.1374 16.9489 16.0364C16.9489 15.0268 15.0788 14.5222 13.4774 14.3969Z" fill="#4F5053"/>
</g>
<defs>
<clipPath id="clip0_17_544">
<rect width="15" height="15" fill="white" transform="translate(5 5)"/>
</clipPath>
</defs>
</svg>
