<svg width="25" height="25" viewBox="0 0 25 25" fill="none" xmlns="http://www.w3.org/2000/svg">
<rect width="25" height="25" fill="#F1F2F6"/>
<path d="M6.98464 12.1327C6.86328 12.1327 6.76489 12.2311 6.76489 12.3524V12.704C6.76489 12.8254 6.86328 12.9238 6.98464 12.9238C7.106 12.9238 7.20439 12.8254 7.20439 12.704V12.3524C7.20439 12.2311 7.106 12.1327 6.98464 12.1327Z" fill="#4F5053"/>
<path d="M9.19078 12.2623C8.80429 12.2623 8.48987 12.6024 8.48987 13.0205C8.48987 13.4386 8.80429 13.7787 9.19078 13.7787C9.57728 13.7787 9.89173 13.4386 9.89173 13.0205C9.89173 12.6024 9.57728 12.2623 9.19078 12.2623ZM9.19078 13.3392C9.04663 13.3392 8.92937 13.1962 8.92937 13.0205C8.92937 12.8448 9.04663 12.7018 9.19078 12.7018C9.33494 12.7018 9.45223 12.8448 9.45223 13.0205C9.45223 13.1962 9.33494 13.3392 9.19078 13.3392Z" fill="#4F5053"/>
<path d="M11.3969 12.1327C11.2755 12.1327 11.1771 12.2311 11.1771 12.3524V12.704C11.1771 12.8254 11.2755 12.9238 11.3969 12.9238C11.5182 12.9238 11.6166 12.8254 11.6166 12.704V12.3524C11.6166 12.2311 11.5182 12.1327 11.3969 12.1327Z" fill="#4F5053"/>
<path d="M19.152 15.4132C19.4032 15.1613 19.5587 14.814 19.5587 14.431V13.0298C19.5587 12.2624 18.9343 11.638 18.1669 11.638H15.8815C15.1141 11.638 14.4898 12.2624 14.4898 13.0298V14.431C14.4898 14.8137 14.6451 15.1607 14.8958 15.4126C14.5158 15.5017 14.2107 15.7877 14.0951 16.157C12.7679 15.6646 12.9403 14.3547 12.9403 13.5423C13.2009 13.4184 13.3816 13.1526 13.3816 12.8454V11.7423C13.3816 11.4351 13.2009 11.1693 12.9403 11.0454C12.9403 8.0816 10.5841 6.6682 8.488 7.06583C8.36875 7.08842 8.29043 7.20342 8.31305 7.32267C8.33567 7.44192 8.45082 7.52045 8.56989 7.49762C10.4649 7.13826 12.5008 8.44504 12.5008 10.9791C12.4416 10.9876 12.3839 11.0028 12.3287 11.0245C11.8891 9.71277 10.6486 8.76491 9.19079 8.76491C7.73299 8.76491 6.49249 9.71277 6.05293 11.0245C5.9977 11.0028 5.93995 10.9876 5.88076 10.9791C5.88076 9.39902 6.5917 8.33308 7.74278 7.77216C7.85186 7.71901 7.89722 7.58746 7.84407 7.47837C7.79089 7.36926 7.65939 7.32393 7.55025 7.37708C6.25756 8.00703 5.44126 9.21686 5.44126 11.0454C5.18063 11.1693 5 11.4351 5 11.7423V12.8454C5 13.4585 5.68594 13.8288 6.19955 13.4856C6.51323 14.1473 7.04002 14.6891 7.69086 15.0215C7.30797 15.3245 7.01807 15.7403 6.87321 16.208C6.7266 16.6812 7.03779 17.1722 7.52789 17.2447C8.6132 17.4054 9.73407 17.4109 10.8589 17.2439C11.3469 17.1715 11.6543 16.6791 11.5083 16.2079C11.3634 15.7403 11.0736 15.3246 10.6907 15.0216C11.3416 14.6891 11.8684 14.1473 12.1821 13.4857C12.2771 13.5492 12.3858 13.5921 12.5009 13.6088C12.5009 14.2294 12.2723 16.052 14.0519 16.6062C14.1122 17.1574 14.5804 17.5877 15.1474 17.5877H18.8978C19.5056 17.5877 20 17.0933 20 16.4855C19.9999 15.9653 19.6375 15.5284 19.152 15.4132ZM9.19076 9.20441C10.5448 9.20441 11.6826 10.1474 11.9823 11.4111C11.4537 11.4426 10.953 11.2746 10.5825 10.9354C10.3343 10.7083 9.93736 10.7996 9.8087 11.1104C9.64251 11.5118 8.99427 11.0969 8.6732 10.7575C8.4766 10.5497 8.14196 10.5558 7.95614 10.7733C7.5758 11.2187 7.01766 11.4435 6.40005 11.4077C6.70099 10.1457 7.83795 9.20441 9.19076 9.20441ZM5.4395 12.8454V11.7423C5.4395 11.4868 5.71856 11.3259 5.94024 11.457C5.8417 11.9779 5.86746 12.5276 6.03037 13.0523C5.83327 13.2976 5.4395 13.1566 5.4395 12.8454ZM11.0885 16.3379C11.1537 16.5482 11.02 16.7757 10.7944 16.8092C9.73173 16.9669 8.65436 16.9672 7.59224 16.8099C7.37319 16.7775 7.22464 16.5587 7.29302 16.338C7.43686 15.8738 7.75491 15.4713 8.17247 15.221C8.82222 15.4317 9.53832 15.4385 10.2091 15.221C10.6266 15.4713 10.9446 15.8737 11.0885 16.3379ZM9.19076 14.9421C7.52016 14.9421 6.19829 13.514 6.33113 11.8437C7.10433 11.9017 7.80903 11.6223 8.29034 11.0587C8.30648 11.0398 8.33649 11.0411 8.35395 11.0595C8.79615 11.5269 9.31605 11.772 9.71052 11.6991C9.94105 11.6566 10.1201 11.5072 10.2148 11.2785C10.227 11.2492 10.2623 11.2381 10.2857 11.2596C10.7361 11.6719 11.3605 11.8995 12.0507 11.8468C12.1819 13.5188 10.8569 14.9421 9.19076 14.9421ZM12.3512 13.0523C12.5088 12.5445 12.5431 11.9948 12.4413 11.457C12.6628 11.3259 12.9421 11.4866 12.9421 11.7423V12.8454C12.9421 13.1565 12.5483 13.2977 12.3512 13.0523ZM14.9293 13.0298C14.9293 12.5047 15.3565 12.0775 15.8815 12.0775H18.1669C18.692 12.0775 19.1192 12.5047 19.1192 13.0298V14.431C19.1192 14.9561 18.692 15.3833 18.1669 15.3833H15.8815C15.3565 15.3833 14.9293 14.9561 14.9293 14.431V13.0298ZM18.8977 17.1482H15.1473C14.7819 17.1482 14.4846 16.8509 14.4846 16.4855C14.4846 16.1201 14.7819 15.8228 15.1473 15.8228H18.8977C19.2631 15.8228 19.5604 16.1201 19.5604 16.4855C19.5604 16.8509 19.2631 17.1482 18.8977 17.1482Z" fill="#4F5053"/>
<path d="M17.7947 16.2657H15.3679C15.2466 16.2657 15.1482 16.3641 15.1482 16.4855C15.1482 16.6069 15.2466 16.7052 15.3679 16.7052H17.7947C17.9161 16.7052 18.0144 16.6069 18.0144 16.4855C18.0144 16.3641 17.9161 16.2657 17.7947 16.2657Z" fill="#4F5053"/>
<path d="M18.6777 16.2657C18.5551 16.2657 18.4578 16.3649 18.4578 16.4855C18.4578 16.6069 18.5563 16.7052 18.6777 16.7052C18.799 16.7052 18.8974 16.6069 18.8974 16.4855C18.8974 16.3641 18.7991 16.2657 18.6777 16.2657Z" fill="#4F5053"/>
<path d="M16.028 14.9403H16.2504C16.3717 14.9403 16.4701 14.8419 16.4701 14.7205C16.4701 14.5991 16.3717 14.5008 16.2504 14.5008H16.028C15.9068 14.5008 15.8083 14.4022 15.8083 14.281V13.1763C15.8083 13.0551 15.9068 12.9565 16.028 12.9565H18.017C18.1382 12.9565 18.2367 13.0551 18.2367 13.1763V14.281C18.2367 14.4022 18.1382 14.5008 18.017 14.5008H17.1328C17.0115 14.5008 16.9131 14.5991 16.9131 14.7205C16.9131 14.8419 17.0115 14.9403 17.1328 14.9403H18.017C18.3805 14.9403 18.6762 14.6445 18.6762 14.281V13.1763C18.6762 12.8128 18.3805 12.517 18.017 12.517H16.028C15.6645 12.517 15.3688 12.8128 15.3688 13.1763V14.281C15.3688 14.6445 15.6645 14.9403 16.028 14.9403Z" fill="#4F5053"/>
<path d="M13.6031 10.9693C13.7255 10.9693 13.8245 11.0683 13.8245 11.1908C13.8245 11.3121 13.9229 11.4105 14.0443 11.4105C14.1656 11.4105 14.264 11.3122 14.264 11.1908C14.2641 10.534 13.3833 10.3297 13.3833 10.7496C13.3833 10.8709 13.4817 10.9693 13.6031 10.9693Z" fill="#4F5053"/>
<path d="M13.6031 10.0868C14.2118 10.0868 14.707 10.582 14.707 11.1908C14.707 11.3121 14.8054 11.4105 14.9267 11.4105C15.0481 11.4105 15.1465 11.3121 15.1465 11.1908C15.1465 10.3397 14.4541 9.64734 13.6031 9.64734C13.4817 9.64734 13.3833 9.7457 13.3833 9.86709C13.3833 9.98848 13.4817 10.0868 13.6031 10.0868Z" fill="#4F5053"/>
</svg>
