<svg width="25" height="25" viewBox="0 0 25 25" fill="none" xmlns="http://www.w3.org/2000/svg">
<rect width="25" height="25" fill="#F1F2F6"/>
<g clip-path="url(#clip0_17_582)">
<path d="M11.4988 5C9.76932 5 8.3623 6.40701 8.3623 8.13649C8.3623 9.86598 9.76932 11.273 11.4988 11.273C11.8555 11.273 12.2041 11.2138 12.5371 11.0968L13.5243 11.6356C13.6142 11.6847 13.7261 11.6826 13.8142 11.6304C13.9031 11.5776 13.9576 11.4819 13.9576 11.3784V10.0836C14.3954 9.53111 14.6353 8.84398 14.6353 8.13649C14.6353 6.40701 13.2283 5 11.4988 5ZM13.4416 9.78884C13.3964 9.84184 13.3717 9.90913 13.3717 9.97874V10.8848L12.7 10.5182C12.6238 10.4766 12.5308 10.4711 12.4503 10.5035C12.1477 10.6253 11.8276 10.6871 11.4988 10.6871C10.0924 10.6871 8.94824 9.54286 8.94824 8.13646C8.94824 6.7301 10.0924 5.58591 11.4988 5.58591C12.9052 5.58591 14.0494 6.7301 14.0494 8.13646C14.0494 8.74174 13.8335 9.32853 13.4416 9.78884Z" fill="#4F5053"/>
<path d="M11.4495 14.7802C11.4495 14.6184 11.3183 14.4872 11.1565 14.4872H9.64671C9.5667 14.4872 9.49014 14.5199 9.43489 14.5778L5.08114 19.1348C4.96937 19.2517 4.97359 19.4372 5.09057 19.549C5.14735 19.6032 5.22018 19.6301 5.29293 19.6301C5.37015 19.6301 5.44726 19.5998 5.5048 19.5395L9.77198 15.0732H11.1565C11.3183 15.0732 11.4495 14.942 11.4495 14.7802Z" fill="#4F5053"/>
<path d="M19.5621 12.3938C19.6678 12.3532 19.7407 12.2552 19.7491 12.1422L19.9992 8.7926C20.0124 8.61594 19.8599 8.46465 19.6835 8.47877L16.4083 8.74306C16.1647 8.76272 16.0515 9.06899 16.2247 9.24225L16.8906 9.90814L14.3049 12.4912H8.9997C8.92154 12.4912 8.84657 12.5224 8.79158 12.578L5.10937 16.2953C4.9955 16.4103 4.99637 16.5957 5.11134 16.7096C5.16843 16.7662 5.243 16.7945 5.3175 16.7945C5.39294 16.7945 5.46838 16.7655 5.52565 16.7077L9.12187 13.0771H14.4261C14.5038 13.0771 14.5782 13.0463 14.6332 12.9914L17.5121 10.1155C17.6249 10.0028 17.625 9.81392 17.5122 9.7011L17.0872 9.27615L19.3894 9.09038L19.211 11.4805L18.8019 11.09C18.6851 10.9785 18.5001 10.9825 18.3883 11.099L15.1344 14.4872H13.7346C13.5728 14.4872 13.4416 14.6184 13.4416 14.7802C13.4416 14.942 13.5728 15.0732 13.7346 15.0732H15.2592C15.339 15.0732 15.4153 15.0406 15.4705 14.9831L18.6085 11.7155L19.2546 12.3323C19.3366 12.4105 19.4563 12.4346 19.5621 12.3938Z" fill="#4F5053"/>
<path d="M12.2021 14.9428C12.3454 15.1575 12.6898 15.0854 12.7342 14.8302C12.7808 14.5617 12.4507 14.3801 12.2488 14.5628C12.1418 14.6597 12.1237 14.823 12.2021 14.9428Z" fill="#4F5053"/>
<path d="M9.89621 16.1528L7.66689 18.4766C7.61457 18.5311 7.58533 18.6038 7.58533 18.6794V19.707C7.58533 19.7847 7.61621 19.8593 7.67114 19.9142C7.7261 19.9691 7.8006 20 7.87833 20L10.1076 19.9997C10.2694 19.9997 10.4006 19.8685 10.4006 19.7068V16.3556C10.4006 16.236 10.3279 16.1284 10.2169 16.0838C10.1059 16.0392 9.979 16.0665 9.89621 16.1528ZM9.81464 19.4138L8.17126 19.414V18.7972L9.81464 17.0842V19.4138Z" fill="#4F5053"/>
<path d="M11.808 16.0741V19.707C11.808 19.7847 11.8389 19.8593 11.8938 19.9142C11.9488 19.9691 12.0233 20 12.101 20L14.3303 19.9997C14.4921 19.9997 14.6232 19.8685 14.6232 19.7068V16.0741C14.6232 15.9123 14.4921 15.7811 14.3303 15.7811H12.101C11.9391 15.7811 11.808 15.9123 11.808 16.0741ZM12.3939 16.3671H14.0373V19.4138L12.3939 19.414V16.3671Z" fill="#4F5053"/>
<path d="M18.3427 13.2232L16.1134 15.5188C16.0603 15.5735 16.0306 15.6467 16.0306 15.7229V19.707C16.0306 19.7847 16.0615 19.8593 16.1164 19.9142C16.1714 19.9692 16.2459 20 16.3236 20L18.553 19.9997C18.7147 19.9997 18.8459 19.8685 18.8459 19.7068V13.4273C18.8459 13.308 18.7736 13.2006 18.6631 13.1558C18.5525 13.1109 18.4258 13.1376 18.3427 13.2232ZM18.26 19.4138L16.6166 19.414V15.8418L18.26 14.1495V19.4138Z" fill="#4F5053"/>
<path d="M11.8357 7.84894C11.541 7.7447 11.3598 7.6605 11.2481 7.57589C11.2003 7.53968 11.1989 7.48405 11.2062 7.44379C11.218 7.37793 11.2681 7.2901 11.3702 7.25934C11.6039 7.18897 11.7524 7.30654 11.7686 7.32016L11.821 7.35783C11.9409 7.44405 12.1065 7.42636 12.2055 7.31673C12.3115 7.19934 12.3038 7.01866 12.1883 6.91065L12.1614 6.88554C12.0857 6.81575 11.9497 6.73068 11.7727 6.68477V6.63613C11.7727 6.4801 11.6549 6.34384 11.4992 6.33376C11.3286 6.32272 11.1867 6.45786 11.1867 6.62609V6.7032C10.9009 6.79533 10.6828 7.04351 10.6295 7.34005C10.5797 7.61676 10.6787 7.87949 10.8942 8.04282C11.0582 8.16719 11.2814 8.27442 11.6405 8.40136C11.8591 8.47864 11.8543 8.65246 11.8421 8.72365C11.8173 8.86844 11.6956 9.01457 11.4797 9.01457C11.2807 9.01457 11.1376 8.98117 11.0427 8.91253C10.9231 8.82602 10.7579 8.82678 10.6529 8.93058C10.5232 9.05887 10.5404 9.26653 10.6802 9.37308C10.8185 9.47855 10.9857 9.54663 11.1868 9.57877V9.63681C11.1868 9.79284 11.3045 9.9291 11.4602 9.93918C11.6309 9.95023 11.7727 9.81508 11.7727 9.64686V9.5575C12.1071 9.45584 12.358 9.18177 12.4196 8.82268C12.4938 8.38996 12.2592 7.99862 11.8357 7.84894Z" fill="#4F5053"/>
</g>
<defs>
<clipPath id="clip0_17_582">
<rect width="15" height="15" fill="white" transform="translate(5 5)"/>
</clipPath>
</defs>
</svg>
