<svg width="25" height="25" viewBox="0 0 25 25" fill="none" xmlns="http://www.w3.org/2000/svg">
<rect width="25" height="25" fill="#F1F2F6"/>
<g clip-path="url(#clip0_17_536)">
<path d="M7.87182 14.5978C7.92804 14.5978 7.98429 14.5764 8.02718 14.5335L8.35929 14.2014C8.4451 14.1156 8.4451 13.9765 8.35929 13.8907C8.27348 13.8048 8.13435 13.8048 8.04857 13.8907L7.71646 14.2228C7.63065 14.3086 7.63065 14.4477 7.71646 14.5335C7.75938 14.5764 7.8156 14.5978 7.87182 14.5978Z" fill="#4F5053"/>
<path d="M17.2076 14.5335C17.2505 14.5764 17.3068 14.5978 17.363 14.5978C17.4192 14.5978 17.4755 14.5764 17.5183 14.5335C17.6042 14.4477 17.6042 14.3085 17.5183 14.2228L17.1862 13.8906C17.1004 13.8048 16.9613 13.8048 16.8755 13.8906C16.7897 13.9764 16.7897 14.1156 16.8755 14.2013L17.2076 14.5335Z" fill="#4F5053"/>
<path d="M19.3374 12.2811C18.0964 11.7048 16.2296 11.6496 15.8527 11.6444L14.0726 10.5116C13.5465 10.1769 12.939 9.99994 12.3155 9.99994H10.2232C9.68146 9.99994 9.13903 10.128 8.65452 10.3703L7.53998 10.9275C7.20421 11.0954 6.84506 11.2041 6.47252 11.2507L5.60393 11.3593C5.25963 11.4023 5 11.6964 5 12.0434V13.4458C5 13.8563 5.27565 14.2217 5.67034 14.3345L6.70836 14.631C6.88666 15.1956 7.41518 15.606 8.03788 15.606C8.55582 15.606 9.00834 15.3219 9.24866 14.9015H15.9862C16.2265 15.3219 16.679 15.606 17.1969 15.606C17.9656 15.606 18.5909 14.9807 18.5909 14.212C18.5909 13.4434 17.9656 12.8181 17.1969 12.8181C16.4283 12.8181 15.803 13.4434 15.803 14.212C15.803 14.2974 15.8111 14.3808 15.8258 14.462H9.40895C9.42371 14.3808 9.43183 14.2974 9.43183 14.212C9.43183 13.4434 8.80648 12.8181 8.03785 12.8181C7.28803 12.8181 6.67487 13.4133 6.64531 14.156L5.79104 13.9119C5.58406 13.8528 5.43945 13.6611 5.43945 13.4458V12.7879H5.68941C5.81076 12.7879 5.90914 12.6895 5.90914 12.5681C5.90914 12.4468 5.81076 12.3484 5.68941 12.3484H5.43945V12.0434C5.43945 11.9176 5.53358 11.8109 5.65842 11.7953L6.52701 11.6868C6.94912 11.634 7.35603 11.5108 7.7365 11.3206L7.83673 11.2705L8.24316 11.675C8.50645 11.9383 8.85652 12.0833 9.22886 12.0833H9.68185C9.80319 12.0833 9.90157 11.9849 9.90157 11.8636C9.90157 11.7423 9.80319 11.6439 9.68185 11.6439H9.22886C9.19045 11.6439 9.15248 11.6414 9.11492 11.6369L9.35771 10.5645C9.63843 10.4821 9.93093 10.4394 10.2232 10.4394H11.3409V11.6438H10.6213C10.4999 11.6438 10.4016 11.7422 10.4016 11.8636C10.4016 11.9849 10.4999 12.0833 10.6213 12.0833H15.7879C15.8087 12.0833 17.8845 12.0909 19.1523 12.6796C19.2267 12.7141 19.293 12.7615 19.3496 12.8181H19.0758C18.9544 12.8181 18.856 12.9164 18.856 13.0378C18.856 13.1591 18.9544 13.2575 19.0758 13.2575H19.5566C19.559 13.2813 19.5606 13.3052 19.5606 13.3295V14.1091C19.5606 14.3268 19.4648 14.462 19.3106 14.462C19.1893 14.462 19.0909 14.5604 19.0909 14.6817C19.0909 14.8031 19.1893 14.9015 19.3106 14.9015C19.5052 14.9015 19.682 14.8214 19.8085 14.676C19.9338 14.5319 20 14.3359 20 14.1091V13.3295C20 12.8795 19.7399 12.468 19.3374 12.2811ZM17.1969 13.2575C17.7233 13.2575 18.1515 13.6857 18.1515 14.2121C18.1515 14.7384 17.7233 15.1666 17.1969 15.1666C16.6706 15.1666 16.2424 14.7384 16.2424 14.2121C16.2424 13.6857 16.6706 13.2575 17.1969 13.2575ZM8.03788 13.2575C8.5642 13.2575 8.9924 13.6857 8.9924 14.2121C8.9924 14.7384 8.5642 15.1666 8.03788 15.1666C7.51156 15.1666 7.08336 14.7384 7.08336 14.2121C7.08336 13.6857 7.51159 13.2575 8.03788 13.2575ZM8.69899 11.4836C8.6474 11.4491 8.5988 11.4092 8.55389 11.3643L8.25228 11.0627L8.85105 10.7633C8.85515 10.7612 8.85934 10.7593 8.86344 10.7573L8.69899 11.4836ZM11.7804 10.4394H12.3155C12.8553 10.4394 13.3812 10.5926 13.8366 10.8823L15.0333 11.6439H11.7804V10.4394Z" fill="#4F5053"/>
<path d="M10.1515 13.5226C10.0301 13.5226 9.93176 13.621 9.93176 13.7424C9.93176 13.8637 10.0301 13.9621 10.1515 13.9621H15.0833C15.2046 13.9621 15.303 13.8637 15.303 13.7424C15.303 13.621 15.2046 13.5226 15.0833 13.5226H10.1515Z" fill="#4F5053"/>
</g>
<defs>
<clipPath id="clip0_17_536">
<rect width="15" height="15" fill="white" transform="translate(5 8)"/>
</clipPath>
</defs>
</svg>
