<svg width="25" height="25" viewBox="0 0 25 25" fill="none" xmlns="http://www.w3.org/2000/svg">
<rect width="25" height="25" fill="#F1F2F6"/>
<g clip-path="url(#clip0_17_572)">
<path d="M12.7837 7.22748C12.7837 7.1061 12.6853 7.00775 12.5639 7.00775H10.0104C9.73541 7.00775 9.7229 7.4472 10.0104 7.4472H12.5639C12.6853 7.4472 12.7837 7.34885 12.7837 7.22748Z" fill="#4F5053"/>
<path d="M10.0104 8.58406C9.73541 8.58406 9.7229 9.02351 10.0104 9.02351H11.5144C11.7894 9.02351 11.8019 8.58406 11.5144 8.58406H10.0104Z" fill="#4F5053"/>
<path d="M9.79362 16.2077C10.0686 16.2077 10.0811 15.7683 9.79362 15.7683H6.90492C6.62994 15.7683 6.61743 16.2077 6.90492 16.2077H9.79362Z" fill="#4F5053"/>
<path d="M7.7163 10.9412C7.83765 10.9412 7.93603 10.8429 7.93603 10.7215V10.4647C8.43097 10.3679 8.72004 9.95996 8.78411 9.57887C8.86644 9.0892 8.61027 8.66343 8.13153 8.49421C8.06731 8.4715 8.00157 8.44768 7.93606 8.4229V7.37806C8.10118 7.41734 8.19961 7.50087 8.20826 7.50843C8.41114 7.69221 8.71512 7.37811 8.50471 7.18402C8.49217 7.17245 8.28129 6.98246 7.93606 6.9309V6.71715C7.93606 6.44217 7.4966 6.42966 7.4966 6.71715V6.94777C7.12963 7.0284 6.85152 7.30534 6.78132 7.6777C6.72302 7.98711 6.8221 8.28541 7.03992 8.45627C7.15553 8.54697 7.29944 8.63003 7.4966 8.71774V10.0419C7.3256 10.0294 7.2073 9.98782 7.01341 9.86097C6.78328 9.71047 6.53224 10.0713 6.77283 10.2287C7.05492 10.4133 7.24758 10.4681 7.4966 10.4821V10.7215C7.49658 10.8429 7.59495 10.9412 7.7163 10.9412ZM7.93603 8.89098C7.95232 8.89681 7.96828 8.90261 7.98507 8.90852C8.39329 9.05284 8.36816 9.40229 8.35073 9.506C8.31668 9.70856 8.17544 9.92328 7.93603 10.0084V8.89098ZM7.31113 8.11051C7.22288 8.04131 7.18535 7.90666 7.21316 7.75912C7.23812 7.62667 7.32572 7.4675 7.49658 7.40357V8.22892C7.42676 8.1911 7.36363 8.15167 7.31113 8.11051Z" fill="#4F5053"/>
<path d="M19.4873 16.6699H17.4341V14.292C17.4341 14.0093 17.2041 13.7793 16.9214 13.7793H16.141V12.8471V11.8733C16.141 11.5906 15.9109 11.3606 15.6283 11.3606C15.2935 11.3606 14.9588 11.3606 14.624 11.3606V9.6582C14.624 9.38322 14.1846 9.37071 14.1846 9.6582V11.3606H11.8809C11.5982 11.3606 11.3682 11.5906 11.3682 11.8733V12.6156H6.90497C6.62999 12.6156 6.61748 13.0551 6.90497 13.0551H11.3682V14.192H6.90497C6.62999 14.192 6.61748 14.6314 6.90497 14.6314H11.3682V17.9475H5.51026C5.47121 17.9475 5.43945 17.9157 5.43945 17.8766V5.51038C5.43945 5.47127 5.47121 5.43945 5.51026 5.43945H14.1137C14.1528 5.43945 14.1845 5.47127 14.1845 5.51038V7.33399C14.1845 7.60897 14.624 7.62148 14.624 7.33399V5.51038C14.624 5.22896 14.3951 5 14.1138 5H5.51026C5.2289 5 5 5.22896 5 5.51038V17.8766C5 18.158 5.2289 18.387 5.51026 18.387H11.3682V18.5136V19.4873C11.3682 19.77 11.5982 20 11.8809 20H17.9136C18.1885 20 18.2011 19.5605 17.9136 19.5605H17.4341V19.0365H19.5605V19.4873C19.5605 19.5277 19.5277 19.5605 19.4873 19.5605H19.0796C18.8046 19.5605 18.7921 20 19.0796 20H19.4873C19.77 20 20 19.77 20 19.4873V17.1826C20 16.9 19.77 16.6699 19.4873 16.6699ZM15.6283 11.8C15.6686 11.8 15.7015 11.8329 15.7015 11.8733V12.6041C15.3002 12.518 14.9835 12.2013 14.8974 11.8H15.6283ZM11.8077 11.8733C11.8077 11.8329 11.8405 11.8 11.8809 11.8H12.6117C12.5257 12.2013 12.209 12.5181 11.8077 12.6041V11.8733ZM11.8809 19.5605C11.8405 19.5605 11.8077 19.5277 11.8077 19.4873V18.7565C12.209 18.8425 12.5257 19.1592 12.6117 19.5605H11.8809ZM14.4287 16.2802C14.2573 16.4731 14.0147 16.5828 13.7546 16.5828C13.257 16.5828 12.8521 16.178 12.8521 15.6803C12.8521 15.1827 13.2569 14.7778 13.7546 14.7778C14.0129 14.7778 14.2584 14.8897 14.4287 15.0808V16.2802ZM14.4331 19.5605C14.4336 19.5576 14.4341 19.557 14.4346 19.5605H14.4331ZM14.4287 14.292V14.5208C14.2264 14.4032 13.9942 14.3384 13.7546 14.3384C13.0147 14.3384 12.4127 14.9404 12.4127 15.6803C12.4127 16.4202 13.0146 17.0222 13.7546 17.0222C13.996 17.0222 14.227 16.9584 14.4287 16.841V19.5606H13.058C12.9622 18.9165 12.4517 18.4061 11.8077 18.3102V13.0504C12.4517 12.9546 12.9622 12.4441 13.058 11.8001H14.4511C14.547 12.4441 15.0574 12.9546 15.7015 13.0504V13.7793H14.9415C14.6587 13.7793 14.4287 14.0093 14.4287 14.292ZM16.9946 19.5605H14.9414C14.9011 19.5605 14.8682 19.5277 14.8682 19.4873V19.0365H16.9946V19.5605ZM16.9946 18.597H14.8682V18.0729H16.9946V18.597ZM16.9946 17.6335H14.8682V17.1094H16.9946V17.6335ZM16.9946 16.6699H14.8682V16.1459H16.9946V16.6699ZM16.9946 15.7064H14.8682V15.1823H16.9946V15.7064ZM16.9946 14.7429H14.8682V14.292C14.8682 14.2516 14.9011 14.2188 14.9414 14.2188H16.9214C16.9618 14.2188 16.9946 14.2516 16.9946 14.292V14.7429ZM19.5605 18.597H17.4341V18.0729H19.5605V18.597ZM19.5605 17.6335H17.4341V17.1094H19.4873C19.5277 17.1094 19.5605 17.1422 19.5605 17.1826V17.6335Z" fill="#4F5053"/>
<path d="M12.7235 10.1821C12.8271 10.2678 12.9307 10.2678 13.0343 10.1821L15.5657 7.6506L16.731 8.81588C16.8346 8.90167 16.9382 8.90167 17.0417 8.81588L19.3535 6.50413V7.10401C19.3535 7.37899 19.7929 7.3915 19.7929 7.10401V5.97374C19.7929 5.85409 19.6928 5.75392 19.5732 5.75392H18.4428C18.1678 5.75392 18.1553 6.19337 18.4428 6.19337H19.0427L16.8863 8.34974L15.7211 7.18446C15.6352 7.09868 15.4961 7.09868 15.4103 7.18446L12.7235 9.87127C12.6377 9.95711 12.6377 10.0962 12.7235 10.1821Z" fill="#4F5053"/>
</g>
<defs>
<clipPath id="clip0_17_572">
<rect width="15" height="15" fill="white" transform="translate(5 5)"/>
</clipPath>
</defs>
</svg>
